<mxfile host="app.diagrams.net" agent="Mozilla/5.0 (Windows NT 10.0; Win64; x64) AppleWebKit/537.36 (KHTML, like Gecko) Chrome/135.0.0.0 Safari/537.36 Edg/135.0.0.0" version="26.1.1">
  <diagram name="Page-1" id="80d4a630-b321-0f5e-ff81-c5a36ef4752d">
    <mxGraphModel dx="2066" dy="1107" grid="1" gridSize="10" guides="1" tooltips="1" connect="1" arrows="1" fold="1" page="1" pageScale="1" pageWidth="1100" pageHeight="850" background="none" math="0" shadow="0">
      <root>
        <mxCell id="0" />
        <mxCell id="1" parent="0" />
        <mxCell id="5c82df7aa0dc6260-15" value="Enterprise Network" style="ellipse;whiteSpace=wrap;html=1;rounded=1;shadow=0;comic=0;labelBackgroundColor=none;strokeColor=#6881B3;strokeWidth=2;fillColor=#CCFFCC;fontFamily=Helvetica;fontSize=22;fontColor=#000000;verticalAlign=middle;gradientColor=none;gradientDirection=north;spacingBottom=36;" parent="1" vertex="1">
          <mxGeometry x="1313" y="568" width="580" height="250" as="geometry" />
        </mxCell>
        <mxCell id="5c82df7aa0dc6260-43" value="" style="ellipse;shape=cloud;whiteSpace=wrap;html=1;rounded=1;shadow=0;comic=0;strokeColor=none;strokeWidth=2;fillColor=#3399FF;fontColor=#0066CC;" parent="1" vertex="1">
          <mxGeometry x="1469" y="618" width="110" height="35" as="geometry" />
        </mxCell>
        <mxCell id="5c82df7aa0dc6260-14" value="Mobile Network" style="ellipse;whiteSpace=wrap;html=1;rounded=1;shadow=0;comic=0;labelBackgroundColor=none;strokeColor=#6881B3;strokeWidth=2;fillColor=#CCFFCC;fontFamily=Helvetica;fontSize=22;fontColor=#000000;verticalAlign=middle;gradientColor=none;gradientDirection=north;spacingBottom=17;" parent="1" vertex="1">
          <mxGeometry x="306" y="548" width="683" height="270" as="geometry" />
        </mxCell>
        <mxCell id="5c82df7aa0dc6260-13" value="ISP Network" style="ellipse;whiteSpace=wrap;html=1;rounded=1;shadow=0;comic=0;labelBackgroundColor=none;strokeColor=#6881B3;strokeWidth=2;fillColor=#CCFFCC;fontFamily=Helvetica;fontSize=22;fontColor=#000000;verticalAlign=middle;gradientColor=none;gradientDirection=north;" parent="1" vertex="1">
          <mxGeometry x="976" y="71" width="720" height="270" as="geometry" />
        </mxCell>
        <mxCell id="5c82df7aa0dc6260-58" style="edgeStyle=none;rounded=0;html=1;entryX=0.67;entryY=0.5;entryPerimeter=0;labelBackgroundColor=none;endArrow=none;strokeColor=#6881B3;strokeWidth=2;fontFamily=Verdana;fontSize=28;fontColor=#0066CC;" parent="1" source="5c82df7aa0dc6260-1" target="5c82df7aa0dc6260-2" edge="1">
          <mxGeometry relative="1" as="geometry" />
        </mxCell>
        <mxCell id="5c82df7aa0dc6260-61" style="edgeStyle=none;rounded=0;html=1;entryX=0.67;entryY=0.5;entryPerimeter=0;labelBackgroundColor=none;endArrow=none;strokeColor=#6881B3;strokeWidth=2;fontFamily=Verdana;fontSize=28;fontColor=#0066CC;" parent="1" source="5c82df7aa0dc6260-1" target="5c82df7aa0dc6260-4" edge="1">
          <mxGeometry relative="1" as="geometry" />
        </mxCell>
        <mxCell id="5c82df7aa0dc6260-62" style="edgeStyle=none;rounded=0;html=1;entryX=0.67;entryY=0.5;entryPerimeter=0;labelBackgroundColor=none;endArrow=none;strokeColor=#6881B3;strokeWidth=2;fontFamily=Verdana;fontSize=28;fontColor=#0066CC;" parent="1" source="5c82df7aa0dc6260-1" target="5c82df7aa0dc6260-3" edge="1">
          <mxGeometry relative="1" as="geometry" />
        </mxCell>
        <mxCell id="5c82df7aa0dc6260-63" style="edgeStyle=none;rounded=0;html=1;entryX=0.33;entryY=0.5;entryPerimeter=0;labelBackgroundColor=none;endArrow=none;strokeColor=#6881B3;strokeWidth=2;fontFamily=Verdana;fontSize=28;fontColor=#0066CC;" parent="1" source="5c82df7aa0dc6260-1" target="5c82df7aa0dc6260-7" edge="1">
          <mxGeometry relative="1" as="geometry" />
        </mxCell>
        <mxCell id="5c82df7aa0dc6260-1" value="" style="fontColor=#0066CC;verticalAlign=top;verticalLabelPosition=bottom;labelPosition=center;align=center;html=1;fillColor=#FFFFFF;strokeColor=#000000;gradientColor=none;gradientDirection=north;strokeWidth=2;shape=mxgraph.networks.radio_tower;rounded=1;shadow=0;comic=0;labelBackgroundColor=none;" parent="1" vertex="1">
          <mxGeometry x="914" y="566" width="55" height="100" as="geometry" />
        </mxCell>
        <mxCell id="5c82df7aa0dc6260-2" value="" style="fontColor=#0066CC;verticalAlign=top;verticalLabelPosition=bottom;labelPosition=center;align=center;html=1;fillColor=#FFFFFF;strokeColor=#000000;gradientColor=none;gradientDirection=north;strokeWidth=2;shape=mxgraph.networks.radio_tower;rounded=1;shadow=0;comic=0;labelBackgroundColor=none;" parent="1" vertex="1">
          <mxGeometry x="606" y="473" width="55" height="100" as="geometry" />
        </mxCell>
        <mxCell id="5c82df7aa0dc6260-3" value="" style="fontColor=#0066CC;verticalAlign=top;verticalLabelPosition=bottom;labelPosition=center;align=center;html=1;fillColor=#FFFFFF;strokeColor=#000000;gradientColor=none;gradientDirection=north;strokeWidth=2;shape=mxgraph.networks.radio_tower;rounded=1;shadow=0;comic=0;labelBackgroundColor=none;" parent="1" vertex="1">
          <mxGeometry x="326" y="582" width="55" height="100" as="geometry" />
        </mxCell>
        <mxCell id="5c82df7aa0dc6260-4" value="" style="fontColor=#0066CC;verticalAlign=top;verticalLabelPosition=bottom;labelPosition=center;align=center;html=1;fillColor=#FFFFFF;strokeColor=#000000;gradientColor=none;gradientDirection=north;strokeWidth=2;shape=mxgraph.networks.radio_tower;rounded=1;shadow=0;comic=0;labelBackgroundColor=none;" parent="1" vertex="1">
          <mxGeometry x="606" y="707" width="55" height="100" as="geometry" />
        </mxCell>
        <mxCell id="5c82df7aa0dc6260-19" style="edgeStyle=none;rounded=0;html=1;labelBackgroundColor=none;endArrow=none;strokeColor=#6881B3;strokeWidth=2;fontFamily=Verdana;fontSize=28;fontColor=#0066CC;" parent="1" edge="1">
          <mxGeometry relative="1" as="geometry">
            <mxPoint x="1241.9999999999995" y="91" as="sourcePoint" />
            <mxPoint x="1439" y="91" as="targetPoint" />
          </mxGeometry>
        </mxCell>
        <mxCell id="5c82df7aa0dc6260-23" style="edgeStyle=none;rounded=0;html=1;labelBackgroundColor=none;endArrow=none;strokeColor=#6881B3;strokeWidth=2;fontFamily=Verdana;fontSize=28;fontColor=#0066CC;" parent="1" target="5c82df7aa0dc6260-22" edge="1">
          <mxGeometry relative="1" as="geometry">
            <mxPoint x="1186.9999999999995" y="108.24738675958201" as="sourcePoint" />
          </mxGeometry>
        </mxCell>
        <mxCell id="5c82df7aa0dc6260-5" value="" style="fontColor=#0066CC;verticalAlign=top;verticalLabelPosition=bottom;labelPosition=center;align=center;html=1;fillColor=#FFFFFF;strokeColor=#000000;gradientColor=none;gradientDirection=north;strokeWidth=2;shape=mxgraph.networks.radio_tower;rounded=1;shadow=0;comic=0;labelBackgroundColor=none;" parent="1" vertex="1">
          <mxGeometry x="1188" y="33" width="55" height="100" as="geometry" />
        </mxCell>
        <mxCell id="5c82df7aa0dc6260-18" style="edgeStyle=none;rounded=0;html=1;labelBackgroundColor=none;endArrow=none;strokeColor=#6881B3;strokeWidth=2;fontFamily=Verdana;fontSize=28;fontColor=#0066CC;" parent="1" source="5c82df7aa0dc6260-6" edge="1">
          <mxGeometry relative="1" as="geometry">
            <mxPoint x="1519.178571428571" y="141" as="targetPoint" />
          </mxGeometry>
        </mxCell>
        <mxCell id="5c82df7aa0dc6260-6" value="" style="fontColor=#0066CC;verticalAlign=top;verticalLabelPosition=bottom;labelPosition=center;align=center;html=1;fillColor=#FFFFFF;strokeColor=#000000;gradientColor=none;gradientDirection=north;strokeWidth=2;shape=mxgraph.networks.radio_tower;rounded=1;shadow=0;comic=0;labelBackgroundColor=none;" parent="1" vertex="1">
          <mxGeometry x="1555" y="181" width="55" height="100" as="geometry" />
        </mxCell>
        <mxCell id="5c82df7aa0dc6260-16" style="edgeStyle=none;rounded=0;html=1;labelBackgroundColor=none;endArrow=none;strokeColor=#6881B3;strokeWidth=2;fontFamily=Verdana;fontSize=28;fontColor=#0066CC;entryX=0.189;entryY=0.801;entryPerimeter=0;" parent="1" source="5c82df7aa0dc6260-7" target="5c82df7aa0dc6260-6" edge="1">
          <mxGeometry relative="1" as="geometry">
            <mxPoint x="1382.9999999999995" y="383" as="targetPoint" />
          </mxGeometry>
        </mxCell>
        <mxCell id="5c82df7aa0dc6260-25" style="edgeStyle=none;rounded=0;html=1;labelBackgroundColor=none;endArrow=none;strokeColor=#6881B3;strokeWidth=2;fontFamily=Verdana;fontSize=28;fontColor=#0066CC;" parent="1" source="5c82df7aa0dc6260-7" target="5c82df7aa0dc6260-8" edge="1">
          <mxGeometry relative="1" as="geometry" />
        </mxCell>
        <mxCell id="5c82df7aa0dc6260-7" value="" style="fontColor=#0066CC;verticalAlign=top;verticalLabelPosition=bottom;labelPosition=center;align=center;html=1;fillColor=#FFFFFF;strokeColor=#000000;gradientColor=none;gradientDirection=north;strokeWidth=2;shape=mxgraph.networks.radio_tower;rounded=1;shadow=0;comic=0;labelBackgroundColor=none;" parent="1" vertex="1">
          <mxGeometry x="1463" y="388" width="55" height="100" as="geometry" />
        </mxCell>
        <mxCell id="5c82df7aa0dc6260-26" style="edgeStyle=none;rounded=0;html=1;labelBackgroundColor=none;endArrow=none;strokeColor=#6881B3;strokeWidth=2;fontFamily=Verdana;fontSize=28;fontColor=#0066CC;" parent="1" source="5c82df7aa0dc6260-8" target="5c82df7aa0dc6260-12" edge="1">
          <mxGeometry relative="1" as="geometry" />
        </mxCell>
        <mxCell id="5c82df7aa0dc6260-8" value="" style="fontColor=#0066CC;verticalAlign=top;verticalLabelPosition=bottom;labelPosition=center;align=center;html=1;fillColor=#CCCCCC;strokeColor=#000000;gradientColor=none;gradientDirection=north;strokeWidth=2;shape=mxgraph.networks.business_center;rounded=1;shadow=0;comic=0;labelBackgroundColor=none;" parent="1" vertex="1">
          <mxGeometry x="1553" y="508" width="90" height="100" as="geometry" />
        </mxCell>
        <mxCell id="5c82df7aa0dc6260-28" style="edgeStyle=none;rounded=0;html=1;labelBackgroundColor=none;endArrow=none;strokeColor=#6881B3;strokeWidth=2;fontFamily=Verdana;fontSize=28;fontColor=#0066CC;" parent="1" source="5c82df7aa0dc6260-9" target="5c82df7aa0dc6260-10" edge="1">
          <mxGeometry relative="1" as="geometry" />
        </mxCell>
        <mxCell id="5c82df7aa0dc6260-9" value="" style="fontColor=#0066CC;verticalAlign=top;verticalLabelPosition=bottom;labelPosition=center;align=center;html=1;fillColor=#CCCCCC;strokeColor=#000000;gradientColor=none;gradientDirection=north;strokeWidth=2;shape=mxgraph.networks.business_center;rounded=1;shadow=0;comic=0;labelBackgroundColor=none;" parent="1" vertex="1">
          <mxGeometry x="1583" y="698" width="90" height="100" as="geometry" />
        </mxCell>
        <mxCell id="5c82df7aa0dc6260-29" style="edgeStyle=none;rounded=0;html=1;labelBackgroundColor=none;endArrow=none;strokeColor=#6881B3;strokeWidth=2;fontFamily=Verdana;fontSize=28;fontColor=#0066CC;" parent="1" source="5c82df7aa0dc6260-10" target="5c82df7aa0dc6260-8" edge="1">
          <mxGeometry relative="1" as="geometry" />
        </mxCell>
        <mxCell id="5c82df7aa0dc6260-10" value="" style="fontColor=#0066CC;verticalAlign=top;verticalLabelPosition=bottom;labelPosition=center;align=center;html=1;fillColor=#CCCCCC;strokeColor=#000000;gradientColor=none;gradientDirection=north;strokeWidth=2;shape=mxgraph.networks.business_center;rounded=1;shadow=0;comic=0;labelBackgroundColor=none;" parent="1" vertex="1">
          <mxGeometry x="1333" y="598" width="90" height="100" as="geometry" />
        </mxCell>
        <mxCell id="5c82df7aa0dc6260-27" style="edgeStyle=none;rounded=0;html=1;labelBackgroundColor=none;endArrow=none;strokeColor=#6881B3;strokeWidth=2;fontFamily=Verdana;fontSize=28;fontColor=#0066CC;" parent="1" source="5c82df7aa0dc6260-12" target="5c82df7aa0dc6260-9" edge="1">
          <mxGeometry relative="1" as="geometry" />
        </mxCell>
        <mxCell id="5c82df7aa0dc6260-12" value="" style="fontColor=#0066CC;verticalAlign=top;verticalLabelPosition=bottom;labelPosition=center;align=center;html=1;fillColor=#CCCCCC;strokeColor=#000000;gradientColor=none;gradientDirection=north;strokeWidth=2;shape=mxgraph.networks.community;rounded=1;shadow=0;comic=0;labelBackgroundColor=none;" parent="1" vertex="1">
          <mxGeometry x="1783" y="608" width="95" height="100" as="geometry" />
        </mxCell>
        <mxCell id="5c82df7aa0dc6260-17" value="" style="fontColor=#0066CC;verticalAlign=top;verticalLabelPosition=bottom;labelPosition=center;align=center;html=1;fillColor=#CCCCCC;strokeColor=#000000;gradientColor=none;gradientDirection=north;strokeWidth=2;shape=mxgraph.networks.business_center;rounded=1;shadow=0;comic=0;labelBackgroundColor=none;" parent="1" vertex="1">
          <mxGeometry x="1431" y="54" width="90" height="100" as="geometry" />
        </mxCell>
        <mxCell id="5c82df7aa0dc6260-20" value="" style="fontColor=#0066CC;verticalAlign=top;verticalLabelPosition=bottom;labelPosition=center;align=center;html=1;fillColor=#CCCCCC;strokeColor=#000000;gradientColor=none;gradientDirection=north;strokeWidth=2;shape=mxgraph.networks.community;rounded=1;shadow=0;comic=0;" parent="1" vertex="1">
          <mxGeometry x="1276" y="231" width="95" height="100" as="geometry" />
        </mxCell>
        <mxCell id="5c82df7aa0dc6260-24" style="edgeStyle=none;rounded=0;html=1;labelBackgroundColor=none;endArrow=none;strokeColor=#6881B3;strokeWidth=2;fontFamily=Verdana;fontSize=28;fontColor=#0066CC;" parent="1" source="5c82df7aa0dc6260-22" target="5c82df7aa0dc6260-20" edge="1">
          <mxGeometry relative="1" as="geometry" />
        </mxCell>
        <mxCell id="5c82df7aa0dc6260-22" value="" style="fontColor=#0066CC;verticalAlign=top;verticalLabelPosition=bottom;labelPosition=center;align=center;html=1;fillColor=#CCCCCC;strokeColor=#000000;gradientColor=none;gradientDirection=north;strokeWidth=2;shape=mxgraph.networks.business_center;rounded=1;shadow=0;comic=0;labelBackgroundColor=none;" parent="1" vertex="1">
          <mxGeometry x="1026" y="131" width="90" height="100" as="geometry" />
        </mxCell>
        <mxCell id="5c82df7aa0dc6260-31" value="" style="shape=image;html=1;verticalAlign=top;verticalLabelPosition=bottom;labelBackgroundColor=#ffffff;imageAspect=0;aspect=fixed;image=https://cdn0.iconfinder.com/data/icons/fatcow/32x32/tree.png;rounded=1;shadow=0;comic=0;strokeColor=#6881B3;strokeWidth=2;fillColor=#CCFFCC;fontColor=#0066CC;" parent="1" vertex="1">
          <mxGeometry x="1663" y="576" width="32" height="32" as="geometry" />
        </mxCell>
        <mxCell id="5c82df7aa0dc6260-32" value="" style="shape=image;html=1;verticalAlign=top;verticalLabelPosition=bottom;labelBackgroundColor=#ffffff;imageAspect=0;aspect=fixed;image=https://cdn0.iconfinder.com/data/icons/fatcow/32x32/tree.png;rounded=1;shadow=0;comic=0;strokeColor=#6881B3;strokeWidth=2;fillColor=#CCFFCC;fontColor=#0066CC;" parent="1" vertex="1">
          <mxGeometry x="1693" y="592" width="32" height="32" as="geometry" />
        </mxCell>
        <mxCell id="5c82df7aa0dc6260-33" value="" style="shape=image;html=1;verticalAlign=top;verticalLabelPosition=bottom;labelBackgroundColor=#ffffff;imageAspect=0;aspect=fixed;image=https://cdn0.iconfinder.com/data/icons/fatcow/32x32/tree.png;rounded=1;shadow=0;comic=0;strokeColor=#6881B3;strokeWidth=2;fillColor=#CCFFCC;fontColor=#0066CC;" parent="1" vertex="1">
          <mxGeometry x="1673" y="608" width="32" height="32" as="geometry" />
        </mxCell>
        <mxCell id="5c82df7aa0dc6260-34" value="" style="shape=image;html=1;verticalAlign=top;verticalLabelPosition=bottom;labelBackgroundColor=#ffffff;imageAspect=0;aspect=fixed;image=https://cdn0.iconfinder.com/data/icons/fatcow/32x32/tree.png;rounded=1;shadow=0;comic=0;strokeColor=#6881B3;strokeWidth=2;fillColor=#CCFFCC;fontColor=#0066CC;" parent="1" vertex="1">
          <mxGeometry x="1453" y="624" width="32" height="32" as="geometry" />
        </mxCell>
        <mxCell id="5c82df7aa0dc6260-38" value="" style="shape=image;html=1;verticalAlign=top;verticalLabelPosition=bottom;labelBackgroundColor=#ffffff;imageAspect=0;aspect=fixed;image=https://cdn0.iconfinder.com/data/icons/fatcow/32x32/tree.png;rounded=1;shadow=0;comic=0;strokeColor=#6881B3;strokeWidth=2;fillColor=#CCFFCC;fontColor=#0066CC;" parent="1" vertex="1">
          <mxGeometry x="1537" y="748" width="32" height="32" as="geometry" />
        </mxCell>
        <mxCell id="5c82df7aa0dc6260-37" value="" style="shape=image;html=1;verticalAlign=top;verticalLabelPosition=bottom;labelBackgroundColor=#ffffff;imageAspect=0;aspect=fixed;image=https://cdn0.iconfinder.com/data/icons/fatcow/32x32/tree.png;rounded=1;shadow=0;comic=0;strokeColor=#6881B3;strokeWidth=2;fillColor=#CCFFCC;fontColor=#0066CC;" parent="1" vertex="1">
          <mxGeometry x="1521" y="764" width="32" height="32" as="geometry" />
        </mxCell>
        <mxCell id="5c82df7aa0dc6260-35" value="" style="shape=image;html=1;verticalAlign=top;verticalLabelPosition=bottom;labelBackgroundColor=#ffffff;imageAspect=0;aspect=fixed;image=https://cdn0.iconfinder.com/data/icons/fatcow/32x32/tree.png;rounded=1;shadow=0;comic=0;strokeColor=#6881B3;strokeWidth=2;fillColor=#CCFFCC;fontColor=#0066CC;" parent="1" vertex="1">
          <mxGeometry x="1466" y="638" width="32" height="32" as="geometry" />
        </mxCell>
        <mxCell id="5c82df7aa0dc6260-39" value="" style="shape=image;html=1;verticalAlign=top;verticalLabelPosition=bottom;labelBackgroundColor=#ffffff;imageAspect=0;aspect=fixed;image=https://cdn0.iconfinder.com/data/icons/fatcow/32x32/tree.png;rounded=1;shadow=0;comic=0;strokeColor=#6881B3;strokeWidth=2;fillColor=#CCFFCC;fontColor=#0066CC;" parent="1" vertex="1">
          <mxGeometry x="1679" y="738" width="32" height="32" as="geometry" />
        </mxCell>
        <mxCell id="5c82df7aa0dc6260-40" value="" style="shape=image;html=1;verticalAlign=top;verticalLabelPosition=bottom;labelBackgroundColor=#ffffff;imageAspect=0;aspect=fixed;image=https://cdn0.iconfinder.com/data/icons/fatcow/32x32/tree.png;rounded=1;shadow=0;comic=0;strokeColor=#6881B3;strokeWidth=2;fillColor=#CCFFCC;fontColor=#0066CC;" parent="1" vertex="1">
          <mxGeometry x="1693" y="744" width="32" height="32" as="geometry" />
        </mxCell>
        <mxCell id="5c82df7aa0dc6260-36" value="" style="shape=image;html=1;verticalAlign=top;verticalLabelPosition=bottom;labelBackgroundColor=#ffffff;imageAspect=0;aspect=fixed;image=https://cdn0.iconfinder.com/data/icons/fatcow/32x32/tree.png;rounded=1;shadow=0;comic=0;strokeColor=#6881B3;strokeWidth=2;fillColor=#CCFFCC;fontColor=#0066CC;" parent="1" vertex="1">
          <mxGeometry x="1687" y="764" width="32" height="32" as="geometry" />
        </mxCell>
        <mxCell id="5c82df7aa0dc6260-41" value="" style="shape=image;html=1;verticalAlign=top;verticalLabelPosition=bottom;labelBackgroundColor=#ffffff;imageAspect=0;aspect=fixed;image=https://cdn0.iconfinder.com/data/icons/fatcow/32x32/tree.png;rounded=1;shadow=0;comic=0;strokeColor=#6881B3;strokeWidth=2;fillColor=#CCFFCC;fontColor=#0066CC;" parent="1" vertex="1">
          <mxGeometry x="1751" y="693" width="32" height="32" as="geometry" />
        </mxCell>
        <mxCell id="5c82df7aa0dc6260-42" value="" style="shape=image;html=1;verticalAlign=top;verticalLabelPosition=bottom;labelBackgroundColor=#ffffff;imageAspect=0;aspect=fixed;image=https://cdn0.iconfinder.com/data/icons/fatcow/32x32/tree.png;rounded=1;shadow=0;comic=0;strokeColor=#6881B3;strokeWidth=2;fillColor=#CCFFCC;fontColor=#0066CC;" parent="1" vertex="1">
          <mxGeometry x="1434" y="635" width="32" height="32" as="geometry" />
        </mxCell>
        <mxCell id="5c82df7aa0dc6260-44" value="" style="ellipse;shape=cloud;whiteSpace=wrap;html=1;rounded=1;shadow=0;comic=0;strokeColor=none;strokeWidth=2;fillColor=#3399FF;fontColor=#0066CC;" parent="1" vertex="1">
          <mxGeometry x="1261" y="149" width="110" height="35" as="geometry" />
        </mxCell>
        <mxCell id="5c82df7aa0dc6260-45" value="" style="shape=image;html=1;verticalAlign=top;verticalLabelPosition=bottom;labelBackgroundColor=#ffffff;imageAspect=0;aspect=fixed;image=https://cdn0.iconfinder.com/data/icons/fatcow/32x32/tree.png;rounded=1;shadow=0;comic=0;strokeColor=#6881B3;strokeWidth=2;fillColor=#CCFFCC;fontColor=#0066CC;" parent="1" vertex="1">
          <mxGeometry x="1539" y="81" width="32" height="32" as="geometry" />
        </mxCell>
        <mxCell id="5c82df7aa0dc6260-46" value="" style="shape=image;html=1;verticalAlign=top;verticalLabelPosition=bottom;labelBackgroundColor=#ffffff;imageAspect=0;aspect=fixed;image=https://cdn0.iconfinder.com/data/icons/fatcow/32x32/tree.png;rounded=1;shadow=0;comic=0;strokeColor=#6881B3;strokeWidth=2;fillColor=#CCFFCC;fontColor=#0066CC;" parent="1" vertex="1">
          <mxGeometry x="1571" y="91" width="32" height="32" as="geometry" />
        </mxCell>
        <mxCell id="5c82df7aa0dc6260-47" value="" style="shape=image;html=1;verticalAlign=top;verticalLabelPosition=bottom;labelBackgroundColor=#ffffff;imageAspect=0;aspect=fixed;image=https://cdn0.iconfinder.com/data/icons/fatcow/32x32/tree.png;rounded=1;shadow=0;comic=0;strokeColor=#6881B3;strokeWidth=2;fillColor=#CCFFCC;fontColor=#0066CC;" parent="1" vertex="1">
          <mxGeometry x="1559" y="101" width="32" height="32" as="geometry" />
        </mxCell>
        <mxCell id="5c82df7aa0dc6260-48" value="" style="shape=image;html=1;verticalAlign=top;verticalLabelPosition=bottom;labelBackgroundColor=#ffffff;imageAspect=0;aspect=fixed;image=https://cdn0.iconfinder.com/data/icons/fatcow/32x32/tree.png;rounded=1;shadow=0;comic=0;strokeColor=#6881B3;strokeWidth=2;fillColor=#CCFFCC;fontColor=#0066CC;" parent="1" vertex="1">
          <mxGeometry x="1593" y="104" width="32" height="32" as="geometry" />
        </mxCell>
        <mxCell id="5c82df7aa0dc6260-49" value="" style="shape=image;html=1;verticalAlign=top;verticalLabelPosition=bottom;labelBackgroundColor=#ffffff;imageAspect=0;aspect=fixed;image=https://cdn0.iconfinder.com/data/icons/fatcow/32x32/tree.png;rounded=1;shadow=0;comic=0;strokeColor=#6881B3;strokeWidth=2;fillColor=#CCFFCC;fontColor=#0066CC;" parent="1" vertex="1">
          <mxGeometry x="1407" y="241" width="32" height="32" as="geometry" />
        </mxCell>
        <mxCell id="5c82df7aa0dc6260-50" value="" style="shape=image;html=1;verticalAlign=top;verticalLabelPosition=bottom;labelBackgroundColor=#ffffff;imageAspect=0;aspect=fixed;image=https://cdn0.iconfinder.com/data/icons/fatcow/32x32/tree.png;rounded=1;shadow=0;comic=0;strokeColor=#6881B3;strokeWidth=2;fillColor=#CCFFCC;fontColor=#0066CC;" parent="1" vertex="1">
          <mxGeometry x="1431" y="249" width="32" height="32" as="geometry" />
        </mxCell>
        <mxCell id="5c82df7aa0dc6260-51" value="" style="shape=image;html=1;verticalAlign=top;verticalLabelPosition=bottom;labelBackgroundColor=#ffffff;imageAspect=0;aspect=fixed;image=https://cdn0.iconfinder.com/data/icons/fatcow/32x32/tree.png;rounded=1;shadow=0;comic=0;strokeColor=#6881B3;strokeWidth=2;fillColor=#CCFFCC;fontColor=#0066CC;" parent="1" vertex="1">
          <mxGeometry x="1415" y="265" width="32" height="32" as="geometry" />
        </mxCell>
        <mxCell id="5c82df7aa0dc6260-52" value="" style="shape=image;html=1;verticalAlign=top;verticalLabelPosition=bottom;labelBackgroundColor=#ffffff;imageAspect=0;aspect=fixed;image=https://cdn0.iconfinder.com/data/icons/fatcow/32x32/tree.png;rounded=1;shadow=0;comic=0;strokeColor=#6881B3;strokeWidth=2;fillColor=#CCFFCC;fontColor=#0066CC;" parent="1" vertex="1">
          <mxGeometry x="1323" y="124" width="32" height="32" as="geometry" />
        </mxCell>
        <mxCell id="5c82df7aa0dc6260-53" value="" style="shape=image;html=1;verticalAlign=top;verticalLabelPosition=bottom;labelBackgroundColor=#ffffff;imageAspect=0;aspect=fixed;image=https://cdn0.iconfinder.com/data/icons/fatcow/32x32/tree.png;rounded=1;shadow=0;comic=0;strokeColor=#6881B3;strokeWidth=2;fillColor=#CCFFCC;fontColor=#0066CC;" parent="1" vertex="1">
          <mxGeometry x="1284" y="120" width="32" height="32" as="geometry" />
        </mxCell>
        <mxCell id="5c82df7aa0dc6260-54" value="" style="shape=image;html=1;verticalAlign=top;verticalLabelPosition=bottom;labelBackgroundColor=#ffffff;imageAspect=0;aspect=fixed;image=https://cdn0.iconfinder.com/data/icons/fatcow/32x32/tree.png;rounded=1;shadow=0;comic=0;strokeColor=#6881B3;strokeWidth=2;fillColor=#CCFFCC;fontColor=#0066CC;" parent="1" vertex="1">
          <mxGeometry x="1257" y="156" width="32" height="32" as="geometry" />
        </mxCell>
        <mxCell id="5c82df7aa0dc6260-55" value="" style="shape=image;html=1;verticalAlign=top;verticalLabelPosition=bottom;labelBackgroundColor=#ffffff;imageAspect=0;aspect=fixed;image=https://cdn0.iconfinder.com/data/icons/fatcow/32x32/tree.png;rounded=1;shadow=0;comic=0;strokeColor=#6881B3;strokeWidth=2;fillColor=#CCFFCC;fontColor=#0066CC;" parent="1" vertex="1">
          <mxGeometry x="1071" y="120" width="32" height="32" as="geometry" />
        </mxCell>
        <mxCell id="5c82df7aa0dc6260-56" value="" style="shape=image;html=1;verticalAlign=top;verticalLabelPosition=bottom;labelBackgroundColor=#ffffff;imageAspect=0;aspect=fixed;image=https://cdn0.iconfinder.com/data/icons/fatcow/32x32/tree.png;rounded=1;shadow=0;comic=0;strokeColor=#6881B3;strokeWidth=2;fillColor=#CCFFCC;fontColor=#0066CC;" parent="1" vertex="1">
          <mxGeometry x="1087" y="125" width="32" height="32" as="geometry" />
        </mxCell>
        <mxCell id="5c82df7aa0dc6260-57" value="" style="shape=image;html=1;verticalAlign=top;verticalLabelPosition=bottom;labelBackgroundColor=#ffffff;imageAspect=0;aspect=fixed;image=https://cdn0.iconfinder.com/data/icons/fatcow/32x32/tree.png;rounded=1;shadow=0;comic=0;strokeColor=#6881B3;strokeWidth=2;fillColor=#CCFFCC;fontColor=#0066CC;" parent="1" vertex="1">
          <mxGeometry x="1103" y="233" width="32" height="32" as="geometry" />
        </mxCell>
        <mxCell id="5c82df7aa0dc6260-21" style="edgeStyle=none;rounded=0;html=1;labelBackgroundColor=none;endArrow=none;strokeColor=#6881B3;strokeWidth=2;fontFamily=Verdana;fontSize=28;fontColor=#0066CC;" parent="1" source="5c82df7aa0dc6260-6" target="5c82df7aa0dc6260-20" edge="1">
          <mxGeometry relative="1" as="geometry" />
        </mxCell>
        <mxCell id="5c82df7aa0dc6260-64" value="" style="shape=image;html=1;verticalAlign=top;verticalLabelPosition=bottom;labelBackgroundColor=#ffffff;imageAspect=0;aspect=fixed;image=https://cdn0.iconfinder.com/data/icons/fatcow/32x32/tree.png;rounded=1;shadow=0;comic=0;strokeColor=#6881B3;strokeWidth=2;fillColor=#CCFFCC;fontColor=#0066CC;" parent="1" vertex="1">
          <mxGeometry x="661" y="557" width="32" height="32" as="geometry" />
        </mxCell>
        <mxCell id="5c82df7aa0dc6260-65" value="" style="shape=image;html=1;verticalAlign=top;verticalLabelPosition=bottom;labelBackgroundColor=#ffffff;imageAspect=0;aspect=fixed;image=https://cdn0.iconfinder.com/data/icons/fatcow/32x32/tree.png;rounded=1;shadow=0;comic=0;strokeColor=#6881B3;strokeWidth=2;fillColor=#CCFFCC;fontColor=#0066CC;" parent="1" vertex="1">
          <mxGeometry x="566" y="550" width="32" height="32" as="geometry" />
        </mxCell>
        <mxCell id="5c82df7aa0dc6260-66" value="" style="shape=image;html=1;verticalAlign=top;verticalLabelPosition=bottom;labelBackgroundColor=#ffffff;imageAspect=0;aspect=fixed;image=https://cdn0.iconfinder.com/data/icons/fatcow/32x32/tree.png;rounded=1;shadow=0;comic=0;strokeColor=#6881B3;strokeWidth=2;fillColor=#CCFFCC;fontColor=#0066CC;" parent="1" vertex="1">
          <mxGeometry x="576" y="560" width="32" height="32" as="geometry" />
        </mxCell>
        <mxCell id="5c82df7aa0dc6260-67" value="" style="shape=image;html=1;verticalAlign=top;verticalLabelPosition=bottom;labelBackgroundColor=#ffffff;imageAspect=0;aspect=fixed;image=https://cdn0.iconfinder.com/data/icons/fatcow/32x32/tree.png;rounded=1;shadow=0;comic=0;strokeColor=#6881B3;strokeWidth=2;fillColor=#CCFFCC;fontColor=#0066CC;" parent="1" vertex="1">
          <mxGeometry x="608" y="582" width="32" height="32" as="geometry" />
        </mxCell>
        <mxCell id="5c82df7aa0dc6260-68" value="" style="shape=image;html=1;verticalAlign=top;verticalLabelPosition=bottom;labelBackgroundColor=#ffffff;imageAspect=0;aspect=fixed;image=https://cdn0.iconfinder.com/data/icons/fatcow/32x32/tree.png;rounded=1;shadow=0;comic=0;strokeColor=#6881B3;strokeWidth=2;fillColor=#CCFFCC;fontColor=#0066CC;" parent="1" vertex="1">
          <mxGeometry x="416" y="738" width="32" height="32" as="geometry" />
        </mxCell>
        <mxCell id="5c82df7aa0dc6260-69" value="" style="shape=image;html=1;verticalAlign=top;verticalLabelPosition=bottom;labelBackgroundColor=#ffffff;imageAspect=0;aspect=fixed;image=https://cdn0.iconfinder.com/data/icons/fatcow/32x32/tree.png;rounded=1;shadow=0;comic=0;strokeColor=#6881B3;strokeWidth=2;fillColor=#CCFFCC;fontColor=#0066CC;" parent="1" vertex="1">
          <mxGeometry x="466" y="714" width="32" height="32" as="geometry" />
        </mxCell>
        <mxCell id="5c82df7aa0dc6260-70" value="" style="shape=image;html=1;verticalAlign=top;verticalLabelPosition=bottom;labelBackgroundColor=#ffffff;imageAspect=0;aspect=fixed;image=https://cdn0.iconfinder.com/data/icons/fatcow/32x32/tree.png;rounded=1;shadow=0;comic=0;strokeColor=#6881B3;strokeWidth=2;fillColor=#CCFFCC;fontColor=#0066CC;" parent="1" vertex="1">
          <mxGeometry x="450" y="741" width="32" height="32" as="geometry" />
        </mxCell>
        <mxCell id="5c82df7aa0dc6260-71" value="" style="shape=image;html=1;verticalAlign=top;verticalLabelPosition=bottom;labelBackgroundColor=#ffffff;imageAspect=0;aspect=fixed;image=https://cdn0.iconfinder.com/data/icons/fatcow/32x32/tree.png;rounded=1;shadow=0;comic=0;strokeColor=#6881B3;strokeWidth=2;fillColor=#CCFFCC;fontColor=#0066CC;" parent="1" vertex="1">
          <mxGeometry x="482" y="732" width="32" height="32" as="geometry" />
        </mxCell>
        <mxCell id="5c82df7aa0dc6260-72" value="" style="shape=image;html=1;verticalAlign=top;verticalLabelPosition=bottom;labelBackgroundColor=#ffffff;imageAspect=0;aspect=fixed;image=https://cdn0.iconfinder.com/data/icons/fatcow/32x32/tree.png;rounded=1;shadow=0;comic=0;strokeColor=#6881B3;strokeWidth=2;fillColor=#CCFFCC;fontColor=#0066CC;" parent="1" vertex="1">
          <mxGeometry x="909" y="688" width="32" height="32" as="geometry" />
        </mxCell>
        <mxCell id="5c82df7aa0dc6260-73" value="" style="shape=image;html=1;verticalAlign=top;verticalLabelPosition=bottom;labelBackgroundColor=#ffffff;imageAspect=0;aspect=fixed;image=https://cdn0.iconfinder.com/data/icons/fatcow/32x32/tree.png;rounded=1;shadow=0;comic=0;strokeColor=#6881B3;strokeWidth=2;fillColor=#CCFFCC;fontColor=#0066CC;" parent="1" vertex="1">
          <mxGeometry x="893" y="700" width="32" height="32" as="geometry" />
        </mxCell>
        <mxCell id="5c82df7aa0dc6260-74" value="" style="shape=image;html=1;verticalAlign=top;verticalLabelPosition=bottom;labelBackgroundColor=#ffffff;imageAspect=0;aspect=fixed;image=https://cdn0.iconfinder.com/data/icons/fatcow/32x32/tree.png;rounded=1;shadow=0;comic=0;strokeColor=#6881B3;strokeWidth=2;fillColor=#CCFFCC;fontColor=#0066CC;" parent="1" vertex="1">
          <mxGeometry x="864" y="672" width="32" height="32" as="geometry" />
        </mxCell>
        <mxCell id="5c82df7aa0dc6260-75" value="" style="shape=image;html=1;verticalAlign=top;verticalLabelPosition=bottom;labelBackgroundColor=#ffffff;imageAspect=0;aspect=fixed;image=https://cdn0.iconfinder.com/data/icons/fatcow/32x32/tree.png;rounded=1;shadow=0;comic=0;strokeColor=#6881B3;strokeWidth=2;fillColor=#CCFFCC;fontColor=#0066CC;" parent="1" vertex="1">
          <mxGeometry x="726" y="746" width="32" height="32" as="geometry" />
        </mxCell>
        <mxCell id="5c82df7aa0dc6260-76" value="" style="shape=image;html=1;verticalAlign=top;verticalLabelPosition=bottom;labelBackgroundColor=#ffffff;imageAspect=0;aspect=fixed;image=https://cdn0.iconfinder.com/data/icons/fatcow/32x32/tree.png;rounded=1;shadow=0;comic=0;strokeColor=#6881B3;strokeWidth=2;fillColor=#CCFFCC;fontColor=#0066CC;" parent="1" vertex="1">
          <mxGeometry x="710" y="756" width="32" height="32" as="geometry" />
        </mxCell>
        <mxCell id="5c82df7aa0dc6260-77" value="" style="fontColor=#0066CC;verticalAlign=top;verticalLabelPosition=bottom;labelPosition=center;align=center;html=1;fillColor=#CCCCCC;strokeColor=#000000;gradientColor=none;gradientDirection=north;strokeWidth=2;shape=mxgraph.networks.satellite;rounded=1;shadow=0;comic=0;" parent="1" vertex="1">
          <mxGeometry x="1071" y="373" width="100" height="100" as="geometry" />
        </mxCell>
        <mxCell id="5c82df7aa0dc6260-78" value="" style="html=1;fillColor=#CCCCCC;strokeColor=#000000;gradientColor=none;gradientDirection=north;strokeWidth=2;shape=mxgraph.networks.comm_link_edge;html=1;labelBackgroundColor=none;endArrow=none;fontFamily=Verdana;fontSize=22;fontColor=#000000;" parent="1" target="5c82df7aa0dc6260-77" edge="1">
          <mxGeometry width="100" height="100" relative="1" as="geometry">
            <mxPoint x="968" y="558" as="sourcePoint" />
            <mxPoint x="978" y="448" as="targetPoint" />
          </mxGeometry>
        </mxCell>
        <mxCell id="5c82df7aa0dc6260-79" value="" style="html=1;fillColor=#CCCCCC;strokeColor=#000000;gradientColor=none;gradientDirection=north;strokeWidth=2;shape=mxgraph.networks.comm_link_edge;html=1;labelBackgroundColor=none;endArrow=none;fontFamily=Verdana;fontSize=22;fontColor=#000000;" parent="1" source="5c82df7aa0dc6260-77" target="5c82df7aa0dc6260-10" edge="1">
          <mxGeometry width="100" height="100" relative="1" as="geometry">
            <mxPoint x="952" y="591" as="sourcePoint" />
            <mxPoint x="1280" y="640" as="targetPoint" />
          </mxGeometry>
        </mxCell>
        <mxCell id="5c82df7aa0dc6260-81" value="" style="html=1;fillColor=#CCCCCC;strokeColor=#000000;gradientColor=none;gradientDirection=north;strokeWidth=2;shape=mxgraph.networks.comm_link_edge;html=1;labelBackgroundColor=none;endArrow=none;fontFamily=Verdana;fontSize=22;fontColor=#000000;" parent="1" source="5c82df7aa0dc6260-77" target="5c82df7aa0dc6260-22" edge="1">
          <mxGeometry width="100" height="100" relative="1" as="geometry">
            <mxPoint x="1118" y="408" as="sourcePoint" />
            <mxPoint x="1563" y="557.8876404494381" as="targetPoint" />
          </mxGeometry>
        </mxCell>
        <mxCell id="eAKO7ODP6Z3hT6WbqTAX-1" value="" style="shape=image;verticalLabelPosition=bottom;labelBackgroundColor=default;verticalAlign=top;aspect=fixed;imageAspect=0;image=data:image/png,iVBORw0KGgoAAAANSUhEUgAAAgAAAAIACAYAAAD0eNT6AAAAAXNSR0IArs4c6QAAIABJREFUeAHsnQe8FNXVwB+aL1/Kly/5knwphOQD3txzZvf1Xnm8B49eFFDAbuwtFuwxUYyI3Wgk9hKsERW7WDAWBBEVRcQSjRqjohhb7I377XnOkmXZfTuzc2Z2yuH347dvZ2fu3Ps/5957bjunrEz+CQEhEDkC5eXlP1JKdQHA7oh4CiLeBADLlVKrAeAFAHgbAD61/tPffwOAJwDgQaXUjfQMPUtpUFqRAyQFEgJCQAgIASEQBQKJREIppfYEgD8DwBsAoJn/vw4AVyml9igvLzeiwEzKIASEgBAQAkIgjAQGIGIHIp4LAP9g7uztGA8vK6XOMU2zPYzwJM9CQAgIASEgBEJFoLy8/OeIeLhS6q8l6PRzGgaI+Hel1IkyMxAqVZLMCgEhIASEQBgIKKVqAWABAKwPSsefIx+Ut5sNw2gNA1PJoxAQAkJACAiBwBIAgE7qVHN0tjlH4wG67wHDMCYFFqxkTAgIASEgBIRAEAkYhlGhlLonQB16sQbHYqVUIoiMJU9CQAgIASEgBAJDYODAgd8CgNnW8bxiO92gPfcZIp6JiN8JDGjJiBAQAkJACAiBoBAAgC0B4OUIjPpzGiC0WRARJweFt+RDCAgBISAEhEBJCQwePPgbNEKOasefo1yXDho06JslhS4vFwJCQAgIASFQSgKmaQIAPJajk8w5io7QfSvl2GApNU/eLQSEgBAQAiUjAAAzAOBfEerUnRot7yHiViUTgLxYCAgBISAEhIDfBJRS+wPAlzHu/NPGwnql1KF+85f3CQEhIASEgBDwm8AAa5d/ugOUTwBNeyDKysoG+C0MeZ8QEAJCQAgIAT8IbA4A58uoP2+govnd3d1f80MQ8g4hIASEgBAQAn4RoOA9F0vnn7fz75sJUUpdXlZWtplfQpH3CAEhIASEgBDwlAAAnCqdf/+dfwafszwVhiQuBISAEBACQsAPAoh4WEbn5uuaf2ujqXefUaWPP6hWX3Fyg14yv1mvvLpFP3dLm351cXvff/qbri2Z36IvP6mh7156pqXR9DWvmYyUUof4IRt5hxAQAkJACAgBTwgAwI5+RvBLmKh3mlapLzyuXq9e2KY/eqhTf7yiuP/07BPXteoLj2vQO06t1KZpewTPYTisR8TtPBGKJCoEhIAQEAJCwEsCiFgNAB9ljmy9+nv08IQ+5+g6/fc72ovu8AsZCpT2OcfU61FdCY4OvmAaiPhhIpGo9FJGkrYQEAJCQAgIAVYC1dXV3waAp7zq8NPpThyZ1AtOb9QfLO/wrOPPNgw+XN6pF53bpLcckyzYiafz6eLzWQkixKqakpgQEAJCQAh4SQAALnPR6RXsWLvaEvrmeY2upvizO3an32mJ4MazmnRni+d7Bf7kpawkbSEgBISAEBACLASUUjt71fknE6DnzqrTby/xb8RfyDD45/0des6BtTrh7R6BHViEI4kIASEgBISAEPCCgGmaPwCAN70wAGjU/+DlLb5N9Rfq+LN/f/iqFt3d7tn+gLcA4IdeyEzSFAJCQAgIASHgmoBS6iIvOn86lvfGPcEZ9Wd3/unva+9u17tsXVlwCaNIRue7FpAkIASEgBAQAkKAmwAidnhx5O+3+9Ro2niX7mSD/kkbEo/aq9oLI+BLwzDauOUm6QkBISAEhIAQcEOA/PyvKnJkm7ezPOPIutB0/NmGyWmH1+UtlwtOj5WVlW3uRlDyrBAQAkJACAgBNgJKqW1ddGo5O8qzjgpv5582Bs78dX3OsrlkNZNNcJKQEBACQkAICAEXBAYopVa77NQ26iiP3rcmtCP/dOef/jx2/5qNysbA6UkJGORCW+VRISAEhIAQ4CGQmvqfwtCpbegk992+KlRr/umOPt8n7V/Ya9uqDeXjYIWIW/BIT1IRAkJACAgBIVAkAQBYwdGpURq9XQn95n3B3+2fr7PPd518BXC6EEbER8vKygYUKTJ5TAgIASEgBISAOwKmaXZzdf5VFagfv6Y1MlP/2cbAygWturIC2WYClFJd7qQnTwsBISAEhIAQKJIAAFzCZQBQoJ3sTjNq32ljIxcv8rlQpNjkMSEgBISAEBACxRMYOHDgtwDgXxwd2riepH7/wfCc9S/WMPnXsk49tpstiNB7JIPiJShPCgEhIASEgBAoggDFq+fo/BFBL5nfHPnRf9pouPeSZs5ZgG2KEJ08IgSEgBAQAkKgeAKIeAeHAbDb9KrYdP5pI2DnaWzugm8rXoLypBAQAkJACAgBhwQoRj0AfMZhAAQ5wE+6w+b+XH5FC9cswGfJZPK/HIpPbhcCQkAICAEhUBwBpdQEjs5/2y0qYjf6TxsT20zmmQVAxLHFSVGeEgJCQAgIASHgkAAAnMphANw0rym2BsD1ZzayzAIopU5yKD65XQgIASEgBIRAcQQAYKVbA6Ch1tTvPBA9pz/pEX6hz3eXduiGOpPDCHi4OCnKU0JACAgBISAEHBCoqKj4PgB86dYA+PVe0fH3X6izz/f74buzhA3+sqqq6n8ciFBuFQJCQAgIASHgnAAijnDb+dPziy+Mz9G/fAbAHec3ccwAaPLI6FyS8oQQEAJCQAgIAQcEEHFvtwZAwgRN/vHzdYxxuU4MkglwbQQopfZ0IEK5VQgIASEgBISAcwJKqTPcGgDTJ8Z393+2cbPV+ArXBgAAnO5ckvKEEBACQkAICAEHBABgkVsDYO5BtbEf/acNgeMPquUwAG51IEK5VQgIASEgBISAcwIA8IJbA+DPpzaIAbDiq9gHV53CchzweeeSlCeEgBAQAkJACDggAACfuDUAyBNeegQc989ll7n3CoiIHzoQodwqBISAEBACQsAZgYaGhv9w2/nT86//RTYApg2f1xa3cywB6LKyss2dSVPuFgJCQAgIAU8J0BltOjvv6Ut8SpzK4tYAME3QHy6PfujfdAdf6POD5R0a0f1JgKFDh37XJzWQ1wgBISAEhEAeApsBwAwAuIWmZjM6zPcB4Aal1DbJZPLreZ4N9OWhQ4f+IqM8RY1c66pRpv+t9f+0cVBThUWxzJSFYRiDAq08kjkhIASEQJQJlJeXGzbd5L4GAEcPGTLkx2HiYRhGMrPTKebv9mZTDIAsA6Ctyb1LYKVUIky6JHkVAkJACESGAADUAMA7DjtF2lA33zTNhjCAsMroarQ6vD0hBkCWAUBMHOrNJvcrpWrDoEOSRyEgBIRApAhYa+Mvu2zEl9LSAW20CyocwzDKXZZRN9bJEkB66j/9yREUCBExqHoj+RICQkAIRJYAIp7itmPMeH4tAMw2DON/gwasvLz8Rxn53GQUauc3cn2b7vjk86vNkOQa2Q67/u6h/RlB0xfJjxAQAkIg0gQGDRr0TQCgDX6uG/GsND5WSl0UpKldq6yuyxnnMMDZRs/bSzpc8yS9icpJk0g3FlI4ISAEokVAKTUxq+NmadCz0rxPKTUtCGe9AeDzrLw5Lu+aG1plFsDaB7B6YZtjfjn4f1JWVjYgWjVLSiMEhIAQCDgBpdShORpkjkY9Vxp0emA2APywVFgA4E235b317CYxACwD4OZ57l0BI+LfS6UP8l4hIASEQGwJIOIctx2i0+ct/wLnm6ZZ5Td4RFzmNL/Z9//xt/ViAFgGwFlH1eUy9JxeW+q3Hsj7hIAQEAKxJ4CIB2Z3cD5/fwARt+7u7v6aH8IAgEvclm+f7avEALAMgL23q3La2W9yP+0V8UP28g4hIASEgBDIIGCaZrfbDpHp+RcQ8XDTNH+QkT32P1PBgI5wm9+mehR3wCs6+xg0N7A4ATqUXdCSoBAQAkJACPRPwAqQs85tp8j4/AcAcFYymfxJ/zkv7lcAmMKR18evlY2AK692HwnQksW44qQpTwkBISAEhIArAoh4GEenyJwGHU3c0VXBcjxMDmc48nn20bIPgGn9f30pN4XmUBG5JASEgBCIDwHDMP4TAB7i6BiZ01hPexSYJTEAAMhZ0SZr0U6ujR+RjP0+gPEj3LsABoDnmeUryQkBISAEhIATAgDwMwB40kkn6NO9XyilupyUpdC9AHAlR94fW9ASWyNg5YJWVwZUBv+36CgquaMuJDf5XQgIASEgBDwiQDHZAeBPAPBlRgPN1dAXnU7KWdEjnI5iAGA3jvLN3q82tgbAb/epKVqeudhbR0PPSyQSlR6ptyQrBISAEBAChQggYrVlCFC0P9aGvtj0TNNsL5Rvu79zBAWictRUoX51cXvsjIBX7mrX1ZXopV74ejTUrt7IfUJACAiB2BCg4DmI+FsAIA9+Xjb4BdNWSv2OEzwAPMdRppMOid8swNxZLM5/Cso8tQn0BaXUIbI8wKn5kpYQEAJCwAEBOipIznoA4C6OTrOYNBDxCgdZLnhrKg/HFJOP7Gfqa1C/FqNZABr911Z7OvrPZRh8gIjnGoZRUVCwcoMQEALBIzBkyJAfG4YxXCm1BwAcrZQ6CQDOo4YdAG6wOpcFAED/LwCAuUqp/SmIjGEY9RTJLXilikeOyDkPAMwCgKezO0C/viulbuSkbZrm4JQe0hG0XB2Oo2uH7V4Tm2WAA3d27/nPJXNZHuCsCJKWEOAmQLHgEXG6Uuoc63jZOy4rPTXItDHtOUS8lo6GIWKjX+5jufmEJL0BZLBZBlrJ9wLQCJCbGwAsYdBLjQh6yfzmyBsBSy9r6SsrBzOGNF6lwFJee47k1jlJTwhEkcBmiNijlDoDAJ7gGlnZaCTeA4CrEXE7WSfkUStyymKN9p+xwd/RSNlNeoi4C08J/50KAOzuJk+Zz47rSeq3l3RE1gh46/4OPXo4y7l/bp2R5YF/q7T8JQT8IwAAJgAcT+E8MxvDEv39KQAsNAxjkswMONaBAVZMADofX/LRfg79+YxmlRyXqsADiPgdAHg7x/uK6qSivBQwa5fqophwsbWRDi3nLEbELcrKyjYrIPrA/ExtlVX3aIltLnnlRMTJAwcO/FZgMikZEQIZBGi0vxUAPGijUpaq0VirlPqNTA9mSC3Hn9Zo/2AACNRoP4deXZUj+yyXaBo5x/uK1tsFpzdGbhbgylMai+bBydZBWi8AwMGDBw/+HouSeJAI7WmyXHDnjMNh+UU4VWY2PYAvSTonQJYq+WYv5UYwBw1AusGiwDJ/SCQSP3Ve4sg+EfTRflp2Gz4Nw2jzShoVFRXfTy15/KsI3dqQv8xnqyowUvsB7vtTs66s8H3Xf062mZxt/h3I5YHy8vKfI+KjNsvwommaVV7pv6QrBAoRIN/pO9CZXJsKy1V52dKxrOnjgzwiKCQEt79njPafDZkcH3Zb9kLPI+LJnEzoaGAU3AQ/cV2rbqhzH+6Xk62LtAJxesAyOJ3WQXKXPLSQHsvvQoCVgGnSEn/pzn67qOz5jIe3EfGAMK0RuhWoaZoNdNwSAD7ygGc+zmzXEXF7twwKPU+hh1NTxhR9kC3fbU2mXr2wLbTLAauua9VUBk4mAUmrpMsDtGm5SA4PcrrDLlQn5PcYE0gmk/+FiKcAwGdFKmvQG477aANjVEVMG+bIgxoAOB1pBE1uaylSoR9yooA03LreUIt62WXhCxj0wKXNURr559PpD+iYsmEYST/0i95hGeNufE9s6Vde5T0xJUBOd7jcpHI3qMzpfWzNBgyIiqjDPtrPId/ZfsmGvB16EQ2RfObfPK8pNDMB15/ZqGkfQw5ZRPUadch30c57r2cGrWPSRXNExHv9qg/ynvgRGECe9wJ6DKzoSmOjIbuZ1uXCKm5rtH+oUuqvNsrqJUfutD/1e/MmOT7yyocFRQ58b2lw/QS8u7RD/2Zv3gh/GfpInewXGd+5dYUrvb95eXoAAB53yWA9ImJY2yrJd0AJGIbx3y7WprgqXynTeZlGzwEVT85sRXC0ny3/S3MW3OOLADDfZSOdXY4N37cYndS0se7jFZ2B+v/4ta168uiKDfn0oPzzyPWytdnyLQ/S5867J8sDTD4nTvW4CkjycSJAR1IA4KkQVEruSp6dHm0CmxJk2VN0PlqrjuBoP1sW9L25FLKgkyKpUy80EsyVJ9fXEiboY39Vq9+8r/SzAeS58PQj6nRF0puyWgyfznRqQ3s6rOPEq7xizJwu2+kBAHiTIW//9GtfTCnqn7zTRwJKqURAvPi5blgZKhbl4Qul1F4+isDWq2Iw2t9I/oi4zBYYj24CgCYAIM+SG+WL83tni6kvmlOv33nAf0OAOv4Lf9eg25s93+X/CcXsyCcmRBxB3jtDtDwwy81RYoYlgLQ+zszHVK4LAVsEDMNoBYB/cjZqUUlLKXWULYge3kSjfctTGEvc+jDJRim1jYdobSVNG0T9YEZH7c4+ul6/6kNIYQrl+8ff1uvWRs87/r6OSim1px3YGcsDbG6ZPZQdLQ+cXczpAQA4jSlfd9vhKvcIgZwEUj6zOwGAvOSlLUr5zGJBroRzwvP2IjldGmntx/B0BMose9rk9TlTmq/SjnxvMdtKnWRBo1Nf6gYtDew2vUrf8Icm1uWBdfe2a9rZv+v0Sk3v8Ks8iHixLcoZN9FSAYULT4UAX+1XPl28p+/0AMUesXt6gDxaunhfpuzWJxIJlYFO/hQC9ggkEolKps0omQoZyb8R8XB7VN3dRf6+qeHz4hgaU4OTT740YjtPKTWKy2dEiQyvnAKkDomWIzxmuAnbhIl62vgKfdIhtfq2c5r00ze26fcfLLxxkO6he+mZEw+u1VPHVWhKy+/803E1t+vU1vLA9VFbHuAybpRSJ+VUWrkoBPIRoKm2VAhUiqPte6NA78REQlf29Oj6HXfQrUccrjuPn6OH/f403X3OH3X3BefprjN/rztPnKvbZx+jm/baU9dMmqgT9XUlyavFiKz8nfLxdHmdjl32AsACr9ebmeVNTO5OxYSYkUwmv04MEPE4pnd8QksfLrmyPk4BpQBgDVP5itblZAL0yGEJTScJdphSqffcpqrv//ZbVvZdG9GZ8HWEn48HdXBu1smzhWctD5BTsjAsD7xPywO0tyq7HOnv1lHrovUgg/sb6fqXTls+hUBeAnRe3G/PcNTh106dojuOna1HLbxWT1rzhJ78zBrH/8fd+xfd9YczdNPuu+lEUxNH5XGSxqd0PjwvWIc/DBky5Mc0swAAz2dUZif5KdW9b9AxruypR2tX9xtMZfmTQ5y+3G6dlHmZqYylkp8f7/2bYRiDvBBKCJcH7sy1PECzfVxuuRFxay9YS5rRI7C5NWrzoxHQ1ePG6c5TTtITHlrmuLMvaCA8tVqPuPxS3bjbrtqsqvKlPADwlmEY5S7UYrMQj/Ypxvr0fKMNmiHh6hiD7IuBXEcDwCtcZY1gOs+ToeSijth+NGTLA2ToHzR06NDvpgsIAJcyyf+udJryKQTyEuCOeZ5TeRF1/Xbb6lE3LuTv9PPMGkxc+XDfMkKivt4PQ2AVxfDOCznHDyEe7fet7RuGUZGjWBtdAoCHc+qD82WmJRslHMAviUTi/wDgGaby+qGzfr3jGb86/0y1QMQhVsySUC0PWJuwOWSz3uXAJBOn/B1FAojY4/VGGur4x9xxm28df/YsARkCtMzgw4zAH23oCI32RymlruHaGOdTh9O3q7m/0X522RkbMk3vzU4/iN+tsMoP+SQTjk7C6zQeoH0SpZSVtTywJ9cGO49lS/XsTq5lAAA4oZTs5d0BJkAjUAB4zSuFrujo0D2XXFSyjj/bEBh3/z26fvvtPG3wlFITc4ncCil7hJde5DyS4+tKqRPLy8uNXOXq7xoAXMKUp390d3d/rb93Bek3ipaZchZ0K1PZPdVXj/P458GDB38jSLIJ2fIAh+zXBuTYbJDUQPJCBADgSq8agKa999KTVq0MTOefaQzQiQKztpajcuVK45WMXc6bGYYxGhGvDelof+t8a/s2ahDtK+FyJHWkjfcF7ZYBlrOgqIbMzqX76WtfWEdkAxtJExEHWkufXDqaLnvgPpVSU4NWOSQ/JSZgOZRhV1asqtLDz54XyI4/0wgYe8/ivs2IXhhAiHhF6ujekWEc7dOUIce6odXAcujXRzStXuLqUvTrlVJdMdsc+Ippmt1FA/P5werq6m+TR8IQ+tiwXbeUUrf7jFVeF2QCNKpLndN+mrvzS7a06DG3l26tP7ODt/P3pNWP64add7Jdkbh5BSS9L2nNERG34pwqNE2ziqN8SqmLglyX7OSNjtgi4k0cPIKcBhm+dIzNDpMA3pP2snkDAFCdiFK78CVtiAwgc8lSKQikpqN/za3gFcOGaRpV2+l4g3QP+R5oPmD/KFV2u2XpW9vnGO3n0uFEIvFTJh2ryZV+GK9RNMmIBtciHwiBjpTpRF9CdnrAVn1HxDlOGMi9ESVgeS6j0La2FMfOfZUjevT45R6c6c9zvM8LA6LtiMPZeNhhVqJ7aCRwR2o39DTO0X6eqrIZALhyAEQuY/OkHdrL1pTziSHbE5KvbnxKG0SpTKEVSD8Zj9jywKth2kjbj1jkJzcEGN2y9jUKFe1tetySe0M38t/EiHj6Sd28z975GrqwX18LAHOVUkPd6I7TZ2n63o2hE+XNS4iIlsMXriBJfuroFwDwpxhNK0dleWBLp3VY7o8QAfI2BQDvuGmUM5816+r0mDtvD3/nn55peGp1n7OizDKG+O8vafOPT6P9nLWEfJ678DGxym4UtZwvD8lFMsoA4PyQxHv4hKL4kfESErzs2SSjBwBO5WxHfWxjbmUHIgmGh4C1M51npICoR1z6p+h0/pYRMOHRFbpyeBcPI8ZlFgeNBPl1OD4oozPKi4O8p7l/ppRqCU/Ncp9T8pFP67QB3SPwDzoyR35D3Jc0GimEdHngi6FDh/4iGhKQUjgiYAVlWVdEY5xulDf6bD3skMh1/ullgdG33qSxomKj8nJx8yid9Gh/qg9r+470rqysjPwBOPE38blSalunL4nQ/ZvRMToaaQPAvzzSFzu6/S4tUZDXyjjMxLjQn7AtDxzroqzyaFgJ0DEvrsakeuwYPenJVZE1AMgQoLDDXLw8TOc1GjVSSNSA6yU1kuQF8YMCLP4WpjPkXjOn2BLkSIo22gHAChfLKXZ0mY6+PamUOoMCUwXQkPQat+v0Q7I8ECqvmq6FIgl8RYDrHDKapq8BfdKjct8/n1qtq8aMttNw+n0PNdSL6NhV2Hb1WkcD6QjqgwBAs1FUFlqyuAUAdnThdTAW1Zz28FAIWesY73wAoJgDxezp+TSlP6tSEQz/DABHp4yL8RneK2PB0stCWssDewHAmgIGr99tR9/7rDDEXiKQtINEgByRcB07av7VfpEe+WcaGqOuv04DYkkqaY6GYy2NBP3eyR8kPZa85CZAa/OJRKKS9k3Q6J1m+5RSOwPA7hQTnjaCkg98uifMXhVzlz7QV/uWB5RSNwbJuRC5Jg80NckcLwGl1P45OhTHHRu5+Z2w4sHYGABkDDTutqtjThysrTRohHwbAGwZttE+rwZLakIg3ARoecBayglC7IH3ZIkn3PrkKPcA8ABHpxTljX+ZI//MvymMcQlmAV4lfw0UX96RoOVmISAEAk2AoiPSchcAPMHRJhebRjHRPQMNVjKXm4AVmtR1RDLaFT9+6f2xGv2nDYH6HXfwYxaARvt30ZStWOe5dVmuCoEoEKBlGAA4GADeK7YDZ3iuOQospQwFCKQ2Co1jUBbdtNeesez8yQjovXaBlwbAK0qp38lov4Aiy89CIOQETNNsAIDzAIAiXHrZphRMW/YShVyZ7GYfEU/hULbeq6+KrQEw+ekndUXXsIKVygFnGe3bVWC5TwiEmACdrkDEw1K+Lf7qoH3gbGtypfW+nLgJsVI5yToiPupW8cjf/6SnVsfXAHhmjW777VG5KpLja0qpc8QblxMNlnuFQCgJ0AkAmuYv5pim43bFSRuvlLomlEQl084IWBtOKHCHK4VqPfTgWHf+tAww5s5FrhimZYCI2zmTotwtBIRAmAjQiR3LxwJLm5FuO5g+18fNzXaYdIc1r6ZpVnEozYjL5sfeAKBlgGRLi+sKLXG5WVVcEhMCgSOAiGdytLtepEEzkIEDJhnyhgDtKHetRKapJ658WAyAZ9bopt13c20AAMBCb6QtqQoBIVBqAoZhtKa8K6533e66nLXN8/5FcsKo1Bri4/uVUkflUQTbHVnNxAnS+VuRArvO/L1tbv1wf8ZHFZBXCQEh4CMBy601RzvBmQZF1zxJnIn5qAhBeBVF8+qnI7KlYE377C0GgGUAjLphoS1mBZh/TpEZg6AfkgchIAT4CFCshlTIdYqzwNFOcKTxHk35y5E/PhmHKiUAuN+tMnbOnSMGgGUATHh4OUel1FIhQ1WNJLNCwBYBwzDa3La3HM8rpR5RSu1BTuBsZVxuiiaBlA/5x90q1Ij5l4gBYBkAdBog0djo2giQXbjRrG9SqngToJgdbttbF8/TccN5iFgdbylI6TcQAIDnXShUX0c36qYbxADIMACqRo/iMAAmbhCS/CEEhEAkCCBij9v21unz6dE+hSCOBEQpBB8BAHjDqUJl3z/mrjvEAMgwAGomT3JtACDidD4pS0pCQAgEgQAiDvTpBMDbdNTQMIyKIJRb8hBQAoj4YXaH7vT7uAfiGQAoHQgo+7NuxnTXBgBFAwuoyki2hIAQcEEAAB5z2sY6uJ/2dO1ADt5cZFEejQsBACCf8646rAkrHpQZgIwZgIaddnTFk+SBiLvGRQelnEIgTgQAYDe3bW7W87S2f56s7cdJi5jKyjIDsOQ+MQAyDACmGYCZTCKWZISAEAgQATprj4jLsjpxx4OG9Nr+wIEDvxWg4klWwkQAAF53q4hj7rxdDIAMA6Bm8mTHlTlbBkqpCWHSI8mrEBAC9gkYhjEIAF7Mrvc2vq+j6K2maYL9t8mdQiAPAQB4zobS9duhjbrxejEAMgyAqlEspwC68ohMLgsBIRABAolE4qcA8Bcb7S+5DV4MADMkRG8EBB9uu2RDAAAgAElEQVSkInBsSOm55CIxADIMgER9fb8Gk40KT46AaoOkJ5IXISAEPCFAIYGnIOIdAPBxVtuwBgDmlpeXG568WRIVAgBwX5bSOe68Oo47VgwAywAYv3yZY365+BuGUS7aKQSEQHwIUBAe8gCqlEoMHjz4e/EpuZS0ZAQAYH6uDsjJtaa99hQDwDIAeq+7hsMA+Fym+kpWJeTFQkAICIF4EEgFpjjSSWef697qcWPFALAMgK7TT3VtACil/hoP7ZNSCgEhIASEQMkIKKWm5urUnVzDREJPfHSFGAHPrNENO+/k2gAAgJtLphDyYiEgBISAEIgHAXIV6aSzz3fviD9dLAbA00+yBAICgFPjoX1SSiEgBISAECgZAYo7DwCf5+vY7V5vOeiA2BsAo2+9iWP0T2nsVjKFkBcLASEgBIRAfAgAwEN2O/p89yWbm/SkNU/E2ghoO+JwFgPAMIxkfLRPSioEhIAQEAIlIwAAJ+Tr2J1cH3H5pbE1ACY9tVpXtLdxGACvl5WVDSiZMsiLhYAQEAJCID4ElFKjnHT0+e5t2OWXsTUARl51BUfnT2lcGR/Nk5IKASEgBIRASQlQMAkA+CRfx273Op0GGHvP4lgaAUwBgMgAkPX/ktYGebkQEAJCIGYEEPFeux19f/e17P+r2BkAo266gWv0T2GAh8RM9aS4QkAICAEhUEoCSqm9+uvY7f6GFRV63AP3x8oIqN9uWy4DYHkpdUDeLQSEgBAQAjEkUFVV9T8cywBkKDTutmtsDICRf2Zb+ycjYt8Yqp4U2WMC5Faa/MsbhjEcAMYj4tZKqT0A4CAAmEV/K6W2AYAtEXFEIpFQ4oraY6FI8oEmgIjfQcRqqg+GYUwCgJlWPTlEKfUrRNyF6pFhGKMRsYNiOJSVlW0e6EIVyhwiXmt3pF/ovpFXXh55I2DSk6t0ZU8P1+j/UwD4YSEZye9CoD8CpmkOVkrtDACnAcCtAPA8AHxRqL7m+J2eeQEA7gKAP1ADWF5e/vP+3i2/CYEQEqBojDU0+AKAP1phl/+Roz7Yaec/UUqttvrR41N/TwtVm46IWxRZ8E3gVHZ364mrVkbaCGg/+jeblNsFv+tDWHkkyyUmYBjG/6ZiR2wLABcCwN9c6J9dXX4ZEa8gg4BGSSUuvrxeCDgmQPusAGB3APgzAKzzuM58CQCPAcDpSqmJtOHecYb9eoDCUabAvMoFpGmfvSNrAPRee7WmUw9crEg5/JKzvCfcBMh7JyJuhYg3AcBnXDpYRDoUv/6GlOGxQzKZ/K9wU5XcR5nA0KFDv5ua0drRmtFaX4Suc7X1HwHAAlpWCOSSAa0JcsIZfva8yBkB45cv08nWVi6FoHQeF+c/UW5+eMpGcTuUUucAwNucdZQprXdplGMYRjlPaSUVIeCeAK3hWzNW1PFyttkcab2EiMclk8mfuC8pUwrV1dXfTq2HvMkFC6uqNB2Tm2yFyw3756QnHtO1U6dwCH9DGog4nUl8kkwECZim2QAACwGAphM36E1A/6Y83kwboyIoCilSSAggIgLA3QGtI9l1mIyTs4YOHfqLQOBVSh3FCS7R0KDH3HVH6I0AinXAFO43UwGeLisr2ywQgpdMBIqAYRitALCIsy76nNYNNGsRKKiSmcgTSG3k6wzoLFlmu5/rb9oIfiFt5C2pkKz1knc4G4uKjg497v57QmsEkK//5v32zSU0t9d2LKmw5eWBI0A7h5VSFwFAKdcq3ep1+vkvEPHiQE1zBk7ikiEuAolE4v84Z7A5+0AHadGMwGza68PFxXE6iHiggwynK3u/n8mWFj1m0a2hMwLouB/5NuDmkdr490ggN4I41hZ5gIkAHUmijUpe70xm12UbdeMdOkcte12YNEWSyUkAAG6xoYul0P9i3vmsUqo3Z0G9vtjd3f012pzGDdOsq9O9110TGiNgwqMrdO3WWxUjvELP0Fppk9dylPTDQYCm/QBgKXd9C2B6t4k/gXDoZNhyaZ3nL9TuhvH3S0ty5BYAmj3ZeGSauv2Y32qaVg/ypsDRt96sK4cP90ph/hi2Cib59YYAeeAL6ZplsXXjXfI54g1NSTWuBGjaPIAGb7F1JPs5mg2o9V22loOR7MywfCcf+hMeWhY8I+DpJ/Ww007RFNfAI4V6g1wv+y5MeWGgCNAsm1LqxIis9TutK+up7LIEFiiVDHVm6PSJR+21U9326v6PrGU0/+RkxQh4ySuwifp63XXm7wMzG0B7FGomT/JKgJQubeza0j8JypuCSMA0zR8g4jKv6lVY0kXEOyoqKr4fRBlJnsJFIC71iTbV0uDBN+lYx5E89ThWM3GC7r3m6pLNBoxftkS3HHSgBtP0svPXSqkzfBOcvCiQBBBxIAA8EZZO2od8PmUYxqBACksyFRoCIT8y67TfudlXt8IAcLAPDUHf6HvE5ZfqyU8/6YsxQEcTmw88wMvp/kzBrpAoa6FpTzzJKEXlQ8S/+1GXQvaOFykKoSfQJdFYEKDBVch0PrNvKObvB/xcSqYjStf7Bbiio123Hnm4HvuXu9gNAQpS1HPRBZr2IHg94s/gRcegKGSk/IspAcuj3z8zdKKYSh/lZ15LJBKVMVUPKbZLAojYE8O69WR5efmPXKKz97jlIIj9aGAhoVX29urWg2fpEfMv0RMeXu7YIKBz/OSOuPP4ObpuxnRtVlX53Yh+qpQaZY+y3BVFAuXl5QYAvF5I1+V3eENmAqJYA3wp02aNmPQjIqbf/Ueh960aPHjw93whnEgkfupT2NG8hU40NenaKVvq5n327pslaP/dbD3slJP0sN+f1tfJtx316z6DgUb4fcf4PF7XL9Bo03n/mb4IR14SSALWmv+LBfQkr75zPddYh3ra+Aq949RKve/2VfrQ3Wr6/tPfdI1+o3u43ucinWcpzHEghSmZCiSB58aN+891o2aeedewiesTjPEyOhIVequqer19dYPes7ZZz6pr07+qa9W71Tbrbasb9ITKWl2N3u4bs1mPFvvmOZAifgHAWpsZC0KDUso8HBTIGiOZ8oWAdYrG9w1/ddWod51eqc+bXa+XXdai197drj9e0Wnr/2uL2/XSy1r0ucfU6122rtS11SUxCmi/jIQY9kVLw/2SN0bMKF/XO/PRdb0zNf2/oLVXYxFGQGuiQu9b16ovau3V93dN1i+NnN6XXjrd/j6f6J6qb+0cr09o6uozGJJQkjqzwLe4MoZh1AMAa7yAqBkUFOox3FVLcu+SwGapwCSL/dJr6qgP2bVa33tJs/5gub3O3o5RQGn95aJmPWuXar+NgevEdbBLDYz442+O3rZhXe/MN7I754Ud43SjmSg48Gs1k/qYxmF6WdcW+g3LgMhOq5jvL4+crq9qH6N3rmnSnDMSNtqSE3wTOUX6AoB/2MhUQUFELA066z/bN0HIiwJJIKXTx/ih173DEvqKkxv020s6bI3w7XT6+e6hd1x+UoMeOaxw48pRdopJEkjhSqZKTuDNkdN71vXOfC9fB/3CiK31yU3D+6bpM2cE6s2E3q+2RS9sH6vXMnb6+fLxTM80fXJzt240k370g7TkPM434VjRl57hqOwRSYOin+3qmwDkRYEkYO1I/sJLnR7bndTXn9moP1jufcefbRDQO687o0mPHu65IfAZ+SEJpJAlUyUj8MaomVPW9c78JF+nm3395RHT9eqeqfqvPVvZntbPTsPt97+PnK7PbO7RTd4bAm/66leDNuwAwMNeNnYhSfsDX62vklU/eXF/BIYMGfJjAHjNK52tqUJ9zjH1+v0H+ab5szt4u9//taxTn3VUnaY8eVVe8pvg2y7n/gQrvwWCgDXyt935u+24uZ//24it9FENnTqB3tUZAHiwoaHhP3wT2ODBg7+BiGd61QiEIN1nELHaN+DyosAS8NJfBu3Wf+G2Ns+n+u0aAOn7/nZbm95uC89iZ5BxcV5gBS4Z843AGyO3qV7XO+Md7k65FOndO2ySHpn09Ej6Eb4JJv0iRNw+5TXw/RB02Jwjlktlx3JaA+L9iYhjvdD9hIn69CPqSjLdn+7kC31+9FCnPvvoek159YAB7avpjLd2xbv0r4/eekiuDX+l6Ly53kknDfara/WivmhE/BARh/iuNQBgxsHXuQV4F98BywsDSWDQoEHf9MJHRkOdqe+f3xK4UX8+g4BODDTUenI2mmIG/GcghS+Z8pSAbtjjP9b1zlzG1fEGLZ1zWkZ6tSRwvaeCyZc4rT8g4gERng24uSTWVT7gcr3kBJRSv+Me+bY3m3rVda2h6fzTRsHj17TqtiZPjAD/pzV90CyrvZwOAJfS+q1S6q8A8AAAnIWII3zIQklfYZpmOwCcZpX5WWtP2VXkRI0M63UjtzkjaJ02d36uaR+rKz1wKqSUmlgy4QLAzyyl9mSag7vBtZHeKwCwY8mAyosDSWDo0KG/AIBPbOiP7XrQ05HQz98avPX+dCdf6PO5W9p0dzv7KYG3yCV5IJWgyEwppSYAwPMFdGdpFOMkWE7l/tJf2avRfPPP7WPWc3e4QUzvjmETvfAs+Jyv4YNz1QOyQgBgVX+CDvhv5PToGF9DMOYCKdcCSQAA5nHqL42en70pvJ1/2jh45qY23dLIPhNwbCCVoIhMWVFW6ey2HcPwfcMwJhXxmkA+AgDDAOBtm2XXxzV2lewIn5/Gwk2d47UHngSDMWhVSvXSFJddoQfgvjfJqY8cQwpkGxKITFnH/j7i0tX6GtQrrw7Pmn+6s8/3+ejVrZpcE3PxoWXFKMQKQMStAIA2NzphQ74lQh9bxAqO9ZbDsuuzW0bEwgi4vG10Ue6M++H5tG9ugu20yhQdTyl1OwB46iylHyD9VjprDW5WdXX1t+2UR+6JLwFEPLlYPct+DhH0onObQ7fmn6/zT1+/eV5jv/Utm0Oh77TfIswaV1FR8X0AeLdQOfP8/plSamqYyw8At+UpW796UoGoye++nyPyUr1rTlNXvyyc8kPErQOnMxQpzdosuNJpgTy4n6b5L6VZCvFBHjhVCWSGrIac7djr7w6ojVznnzYCZu9Xy9mgrfXV0Qmz9tGsosv2K7RGAHl2dFP2Ixs6YmEAkJvi6dX1nHXmMWY15k3OMIw6q2LcDwCfulESB88+q5Q6BwC2lCNGvPKMQ2pKqV850LV+K/OWY5KaPOulO8yofb63tENPHs3nLAgRp4dVx5iOSYfSCACA893UGQrRyxm4p1QjfDvvXdMzjTWGQGjcatPUu2maY5RSJwLAnQDwUhHrZdkNLm04of0HF9JOfjqhENYGRPIdDAJcLrDJec5jC6Kz7p/PeFm5oJXNUZBS6p5gaIGzXJDXVDcdYNazodoTQJuoAeC9rDJkt9MFvz/VMy0WswBkJFzY2luQhwOef3SmrQG6m5RHKVULADMoSphS6jdkICDiuUqpy1MOiP5MLkMR8RSaSVBKHaKU2pl2m0Zh01CARCFZKSsrU0olHFS8fivxsb+K7tR/tjHwm71r+mXhgOn6RCKhwqaMFKjFQRntsArNTEDKUdYOHGVf2jU5NgbA6yNn6ClVdXb0wM49byWTya+Hrc5IfoVA4AgAwAkcjVlzg6nfvM//iH7ZHbNf39fd26Eb63hOBSDiYYFTjAIZIj8GHHqTlUYojIDUYOzurHzb6bQ2uefx7imxMQBoFmBJ12TOUwFTCqio/CwEhEAhAhSljqMx+8NRdZFd989nVPz+CLYRzdJCcgri7wDwOofuZKURaCPAOi5r1+fBJp1+uqzVpqlfHTkjVgYAGQG71DbnZZJmY+cTEa8NYp2QPAmB0BCw4l24rpDkM/+Ne9pjZwC8cU8Hl2+AL6ljCY3iWBlFxIvtNNZF3BNYI0AptU0R5dmkju1e2xy7zp8MgHu7Jm3Cokie75SVlW0etjoj+RUCgSGAiHsXWfk2qsRzZ8Vv9J+eFZhzIM+xQETcNTCKYTMjqZDRNQDgejScRwcDaQRYm6830v88+e/3nqvax8TSACAjYEYVz7FARGy0qapymxAQAtkElFLXFNN4ZT/z5PXhC/ST7sDdfq5e2NZvQ5/Nqp/v87PlE4bv1vFjLgbZ6QTOCEidvHqhHxlm5z/n90YzoV8ZOT22BsD8tlE5uTjlGsa9M2Go05LHeBDYDADIRbSrykjn/t12omF/nskvwDNhVDvajQ0A5PPElR7183xgjAAr6I/rch4REydANNrP9f/lkdN1DU/EwEVhrDOSZyFQcgKGYVT00+jabuQu/F1D7A2A82azTGmuJ4+MJVeMIjJgGMZ/I+IyDn3Kk0YgjADL74rtupGnLPovXZNydoy5OsuoXtu3rtU1R4qnEajYAEXUHXlECJSEgBXExXUlXHNDfKf/0zMXT1zH0phpRBxbEmVgeCk5PQOA+/J1egzXS+4sCADmui1HLZr6td747f7PNmT+1MqzDEAhzBnUV5IQAvEioJQ6ym1jRuF+P3ooum5/0x18oU9i0MoQLpiOZKZCjj8S1v+pCH/PuNWpAs+XdCYAABYWyF9Bg5qOwWV3hnH8vrp7akFWdlgbhjE6Xi23lFYIMBCggFF2Klh/9xywU3Xsp//TxsGvdqxiadD64y2/9e0zKJkRAABr3MrgrJiEArZj1IyocF9nKI4JQ3MoSQiBeBEAgIfcNmbnHB3f43/pjj/9efbRLPsAxIiwt5nwMwp85meN7e7u/hoAfOK2zizqnCAzANbmwD1qWJwCzfNTD+RdQiASBADgLdeN2bnNMgOw4qslkNvOaZLO217nzcIJET+kyKt+VUZEHOK2vtDzFBnPzug4DvfMbRruWheUUrf7pQPyHiEQFQIDAIA2VbmqgE/f2CYGgGUA0GZItzzleWf6qJRa7dcucCvMuysZ0wbAuIQAtmPAXN422hVPq74sj0qjLOUQAr4QsMKZuq587y6NT/Cf9FR/vs93HuhwzVMMAGcGAPFCxK39qDQUjdWtfMZU1MjoP8M3wOJhEznqzBo/5C/viCkBREQA2AcR51jHgOhvDDMOK6CJq8pXkQQZ/Vuj/7RRkEw478DcdiryPFztR10EgPFuWU+tqhcDIMMAWNa1has2yJLHy37IX94RMwIAMLLARrnHAWC3QYMGfTNsaDg8mlEo3HTHJ59f7QPgCg/stqOJ2fMv+VH/AGCGW67bVTeKAZBhAKziOQpIQYHknxBgIzDAGu2vt1nh/6mUOjFMDimsIC6urO/h7QkxALJmAIiJTZ2R+1zuP8ng/DFbze8nIUTcJeOdRclvN/EBsJEB9NeerYrimCWHz/sRm/wkBJwRAIBjsxTMrpJSVLSblVK9zt7o/92GYSSLLOMGFuQESEb+GztBIiZuucrzjpdR3vSjBgHADm5ls3NN00YdoJ2NclG+h05EuGVKp0H8kL+8IwYETNNsBwC7I//+lHelUuqXgwcP/kYQsZWXl//cbcWrrZYlgGwDqKYK+9MJ+Y1v1J/J0pdd4OR3wG2dmVHdIAZAxhLAw8O3zJRjsX+/HsQ2VvIUQgKIeK/bSp71/DprOeFnQcIxePDg72Xl03HlQwT94fKNR8DZHWKcvn+wvEMTE7dc5XnHDI/xo25Ze4JcyXdSZa0YABkGwL1dk1zxtOrKc37IX94RcQKGYQxiGv3nUmo6cx+Y5QHLq1mufDq69uridlkGsPYBvHJXuyN20tE77uhz8f2I6q0fTRMANLuV2bBkpRgAGQbADR3jcsnU6bWVfshf3hFxAlyhPm00Eg/TeqJhGP9ZSqQA8JGNvPZbGZdd1iIGgGUAPHApi1vTfnm7lVcEn/dl9E/1lGPfDALol0dOFyPAMgIoLgKDTt5XynZU3h0RAgDwawZldKLQrwPA7GQy+ZNSIASA59yW98pTGsUAsAyAy09qcCJ7udf9foCb/fICSPVz6NCh33VbX+j5pV2TxQCwDIBD61lmza4sRfsp74wYAUQ8nKOCF5HGpwCwABE7/EQKALcUkdeNOq7jDqgVA8AyAI7dv2YjNm7ZyvP9LhHcWQr/GwCw1q1cyP1tlHf2Oynb9GqWAFq+zQL52T7Lu3wmoJTa1m3lZnj+QaXUNg0NDf/hdfEB4DS3+Z06rkIMAMsA2GJ0UgwA96N6OwxL0vlTfeTYJHxYfbsYAL0z9Ssjp+sqZDk2O8PrtlLSjwEBmor3cBOgnYYt857XybkQAHh2ekAptYdbAyBhol53r2wEXHdvhyYWbnmSq2nyIxHW/wBwKQOD/jiWrPOnJhAAznNbvt5klRgAvTM1hUV2y5KeV0rVxqB7kiL6QQAAbuVQSq40yMkFABxfXV39be7yG4YxnCOfiyQksL71bJ5QwLTRjFvOfqWnlNoZAMgZFkvDniOdknb+xBEAZuXIl+PySkjgmZojFDAN2LxoG/2qM/KegBEwDKM+tRnwM45KzpkGIj6KiAM5cVmbmj53m8+Dd6mO/TLAQb+sdtwJ5OD+rp+b2jh1CQB2inrnT7yUUl055OZY9n9sGRH7WYDRFSx1RiIBclZkSavPyt+Po5J7kMZK7o1PBYId2WrYyPvdW/fHNyzw20s6NHlFdCtvRLwjjPXPCpNLG1ldM8iTRslH/mm5JJPJrwPAB3nyabv8k2PuEOi+rsm2WRVgfVZaNvIpBNgIIOLeAOB6dFxAeR1XAkQ8ma2QX01pnsCRx2tOj+9xwKtPa3Qsx1zMlVK/45StH2kNHDjwWwDwWq7yMF0LTOef5gkAd3KU7aHhW8Z2FuDXDZ1cdWZqWi7yKQRYCRiGUUHe+wK0MVDTnoDy8vIfcRVUKTWKozGbNj6+pwG2HMOz+98wjDYuufqVDteaeB4dDFznT1wB4Mg8+XXUqR1e3xFLA+DFEVvrBpMlaibtN/mhX7ou74kpgUQioRDxTI6pP46Gg8KSconCGsF9wpGvey5ujt1egMUXsnn/WxvG9X8AWM6hOznSCGTnT/VOKdWSI7+OOn96vhJN/XTPtNgZAac0dTtmlYs37YviagclHSFQkEBVVdX/KKUOSW14ejGXQvp1TSl1UcHMOrhBKXUjR9633SJ+swDTJ1awNGZ0vMyByAJxK/mq8GjjX2A7fwv8ZgDwMkedOaZxWKwMAHKD3JzgmTFTSv0mEBWBIxOGYfx3IpH4aXl5uQEANUqpoYlE4v+o0ykrKxvA8Q5Jg4eA1fBdyNEAFJnGrTwl+SoVRNyqyHxs0vndfl5TbGYBbjuH5+ifxX48p0z9SIt8VHDpTUY6Qe/8+9ACAMveGXKE83j3lNgYAcc3dW3SZmTI3slv6xFxiB96zvIO6uCtIyS7IeIpiHhTyvPcXwHgPRsA6FjaPwDgQQC4iiwfpdRUwzDKWTInidgiYDV4RyPi323IzIkyO733OlsZtnkTBSUCgLc5ytTTkdDvPBD9EwG08394O8s6Jsn+ddpdblNcgbmtoqLi+xw6k5FGKDp/EoBSKpGRb6f1d6P7d6hujIUBsHL4lL5lDw5uSql7AlMRcmWE1lYNwxhtWYq0TkbhYDcSPNN32oG7AAD2C5VFlAtaMK9trpSaYE2TeyVDp3pxKjcqRDyXSR/1qYfVRX4W4IRZtU5l1t/9x3PL06f0BgDAO0x6E5rOP80WAFYwlV1f2z420kbAG70z9XbVPKdliDnnPqi0PF1/Dh48+BuION3aOe7ludj+GpNViHgcIqLrAsU4AYoxnlK0Y7jW+rgaCkqH3MRyi8YwjFauPCZM0FEOE7xkfjOX21+qx1/QUh+3PP1KDwCuZtCb0HX+xBcA9mUoe19bTuviT0V4Q+AfW0b212c5/e0DmlH3S8cLvsc0zXbLRzSXNewUSL77H0DEXbmdxxQEEt4baLQ/kZZnPJyxyScru9df9SpQEADcz9WgDWtN6LV3Ry9GwKuL23VHC0sAkz5508xSeKtLXyc4zKXOhLLzJ5lZJ2jWuSz/hnpPkfHWWmFynUTUC/q95PSnAt07ysrgzD4DWlQdpJEYIi7LyNgGYQbs2psUWIbblWxR0AL4EHGxQgGXdHe/HZ1RSh3lFULTNMfYyYPde3aeVqnff7AzMssB/1rWqbffspK1jpum2e2VPP1KFwAW2tWJrPtC2/mn2abchv86q0yu9GN2xE4FPNszTXclWevMx7RZPs2/FJ+bWbumH+MUvB9pWYFlThg8ePD3SgEuYO8Mw2g/uzH5mNMJUC55AMDDnLo4a5dq/dFD4TcCPlzeqQ/cmcV3eaZMF+eSQdiuWTElnnKoN6Hv/ElONBXNuA+iTzf+EJE4AS+NnK4nVbLulSE+80pWP1KR4ppSU8SPOFT0zAoflL/fovPsXk0ll0xANl5cXl7+cwCYbZ2qCIo87ObjEhtFdHULAGzJrd9zDqwN/SzAsfvX2JWR7fvC6Pkvn3KZpvkDAFhsR3eUUmdHqe2hPVd2ym33HhNRX94+JtSbAl8dOUNvW91guy7YZPNZSfbL0IjZ8gQXlF3gXGCfBYCR+Sp1hK5vRss11mmJwPn3t6n8tPO10QeZDPBiWWv2frWaRtEfrwjXf8rz0fvyd/4AcIsPsvT7FXQqYIa1O359ll7TpuhFKSOh0+9Mef0+8tUCAG9klddVG51A1Be19obSCKCR/zb8nT+1f2d6LctN0ldKbcMtXE5FYUiLHCqcG8WYyiEf7Wc3IEs2UU6PLiilar3YBLn/TtWa1tHDYgS8t7RD77t9VbYcOL5/SnEmPBJfIJJNJpM/oSiBiLgFbZIO1K5tDwgppX7J0BZvolvHhmxPwDM907yY9icur/u6dG0d6SP/75sIJaLXXqCK6kHd8DvJSIz2s3WM9p34CdKa8WLXfXKd++KitsAbAS/c1q63Gs/m5ncjjjRl7Kcs5V2+EKDZjyXZ9Zbj+351rfrvI6cHfjbgnmGTuDf8bag3Kad52/oiRXoJeXlSSq3mEF7I0iCPg/v4BprxRdZo/9iQru1vUPQ8+vJyd3f31xhxFUzK2tz0asD7vpwAACAASURBVJ78FMpvv7831aO+4/zgugxedG6TbqxjPba0gQd5/6TBRUEByA2hI2BFD6U2dIO8uf7uTVbpB4dvEUgjgJz80Dl/5qN+mQzv880dvrWG9QGX4EKazoXkHjYENXBzRJxM66leTFkHSHZHlEIWKSN4mlcMEEEfuluNfm1xcHwFvHJXuz54l2pNefOo3OujcOyvFLoYlncCwPEe6U6fG90Tm4brVwI0G/DQ8C30DA/W+zMYfuCbUztEPMCj6FZeNShepnu/r2suDmr40KFDfwEANNp/JUNRvGRRyrQ/oh3WDvCw3krHbrxkTCPt+Sc0lNRfAO1LuHhOg26o43Pwk4sZ+eJgFY4kFjgCNFPn1VJAWqd6klX6+o5xJZ0NeGHE1pp8FiTBm5mydFkBYAdfhGw5gillQx/Edz9JLnF9EUDhl0RybT9D0fPJ//zCaLy7g2aCKO62jXzmy7+t68PbTX3hcQ2+BhKijn/B6Y165DC2oD55y0onK6J09M07jQt/ypYb8Te9rjPjK2v0pW2j9dqRM3wzBp4fsZWmWYgG0/s6wx32PJ9mbZ6K8naB18IKcfp/o/X1fPC8vk6jfaXU72Iy2t+kA0HEaq8ZF0rfClFtJ2rlJvl3qvftzaamQDurF7Z6tlFw9cI2PXdWnW5r8nbEn1H2N8QLZyEti9bvqaOQ4wEg+yik6/qRoVMb0hpdUa3PaOnRazyKJUBr/Hd0TtCz6tp0DfpTZ2gPHrla9lwrlFLn5IIq1/69Dkobl/x0v0jTaHR8KOV46daQLcl8YUUNfJ9Df4IU8tLaa+GrH4zJoyv0aYfX6SXzWzQdySv2+OC7Szv0/fNb9KmH1epJo5IbGk4OGdlI41NE7PG8IZMXBI5AygA42oZ+sOkjORCi8/dnNvfoJV2T9esuZgZoin9hxzh9VEOHHpZgdeVrp7z/9GXd31pHtpMhX+4xa2t1sqVFV3R2arOuToPpj7VlU0nXeL0WTV6erNG+J7vPbZbTsawR8e9WZf8ZNfaM75kSpFYtNQuzm1+jmmyG1ZWot55QoQ/bvUaffXS9vnleo77n4mb96NWt+qkb2vr+09907eZ5TX330L10lI+ezU7Pp+9fAsDMIMlQ8uIvAfJ66JOubaLjNE1PBsGh9e16XssIvbB9rL592MQ+42Dl8CmaNvDdO2ySvq1zQp/nQZra36e2RU+orNXkiKhE+aZIf62eS4mOu5WigJhI6JotJuvWIw/XXfP+oEfdcJ2e8PByPfmZNTn/T1r9uB5z5+2655KLdMec43TDzjvpRCNfXGWHDO7nPh1gbZoh97O3hWy0Tx4Fb6CpvrKyss3SCgsA1ztkmq+ivVhWVrZ5Ot2gfFIwIqby5St3lK4fFBS5ST5KRmAzywNplPTaq7LQEcpxnkvK8ndO1rlXBdko3UR9nW7+1X565JWX64mPP5qzo89nAOS8/vSTesyiW3Xn8XN0ZW/vRu/yoUyXcZzJpNG+5UM7VKN9AHgJEX+b2jfys2xFNU1zMNdxRIrVkJ1+UL4DwB980DO/9Zr1fYg4JyjyknyUlgANmlJeEe+WOtNvf0v7JXb0XFKIOIQ7elM+wdZOnaJ7LrpAT3riMfedfp4ZAjIQRt96s2456EBtVnnitjRXw3hwMYIK+WifRvYbjfazGQDAqfl0weH1D8i/eHb6Afo+gI60OSxTLj2K5DU57hcgTQ1IVmhDm+WvJJI677It+BwRd/FcVHQMx4tAJ9mFr5u+tR51w0JPO/1cMwMTVjyo24/5raYZh+w8MX8ngXXYFRiNlumYpbVW7nXeONN/hRpzOolQqKxWBX+LgzOtGxZ6XxB+F78Zm4xoaBQj0/5BUM5g5oFOnF3I0UZEKA1yukcDK+//KaXO8BJcVW+v7r32at87/mxjYMJDy3TT3ntp8HAjB3Xm/Y1SrdH+FCsCmG/LLQzypbV9Gu3TWtSGtf1C2qmU2pPh3WS8rA9ToBiatgOA0EZYZJIZyY2i3fnjtKSQMsrvQSYgs2f/Xnp/y7f4M16ey8TKSt05d46etOaJknf+mcbAqIXX6qrekZwj4uy0/pRd02gdnNY/AeA1xsY1+71efH+RNrgVe16bjuwxlfeubKZB/26FWmYNh8rE0gs9yZXmP5RSLUGXk+QvOAQQcW8A+Dhkep5L94u99ngikVC+SGTQoEHfTI1UXvACdmV3tx592y2B6vgzjYCJq1bq5n32LlZIdp4bR0srABDW0f5CRBzrZLSfrbTWJh+WM/KGYUzKTj8M38vLy38EAHd6UceCnCYi3kuhb8MgI8ljsAgYhlFHPlaCrN8e5e1SX5z8pMVt7Ta305k5uqfhlzvriY89EtjOP9MQGH72PE0zFR4I9PWwjva5nBtZu/852D7vxhBJ63sJPze3/DiEacmnWLnRkaXZQTyqWUL5y6sdEkDE7wDAlR60y8XqtZfP/cvXsL4kC5pm8GKqhXbdT3pqdSg6/7QhQPsTEuRg6N9rMHH6m0bodyHi1tyNNpcBgIgHOmw/Anm7UqoLAJ6Mqp5ZsRFqAglfMhVKArR/BABoMBXJNlkpdbthGOW+C4dezA2147hjQ9Xxpw0A+iT/AYnm5kgqWR4509LPr7lG+7kU2FpicrsR7v2hQ4d+N1f6YbxGy0JKqUMBIEqhtT9KbfY7kja4hlEmkudgE6Doq4h4JpcvkTztod9tP/l58f58fy7RkktBbgjts48JbeefNgTG3LlIJ+rr/VYEP9/n2Wg/l57RNYYQoGflSzvM1ymQlOUJzZfAKNz13UqPjLvzczl/CrNsJO/BJGCaZoMfx9U9qivpdv5jRDw5mUz+V8koW8Fk0hly/dly0AGh7/zTRgCdEPDRcZBr9jaV9W80QivFpiwA2N1mHnOx+Ny3HbElqo2maVYBwFUhG92sR8RrAcAsETZ5bYwJAEAnANzsol3J1dZ4fe0DaxZjE0+pvoqSdlhyBi6p327b0K35pzv7fJ89F1/otTL4kf5n1EgbhjG6lBvorJMQzxZTWcPi+IejApummdrzBJdY5+b90I9i3kHRHP/oS0QyDqiSRqQJWIbAIs7+rJh2qsAz71jHv38YCGEopa4pkGHbDUNFR4ee8MhDkRn9ZxoELbMOss2BiydTOiUb7edTcGuU63TNe1V1dfW386UZ1esA8EMA2C/lcOkhJn3g0OMnyJNflPZiRFV/4lguWk4jj6oBOjpIp33uojX+QLVh1rojy1Ekit5HEfsyO80o/U3RBqvHjeNoPP1I4zMy7JRSo0o52u+v8SGHMACw1k6nRut8hmH8b3/pxeE3mmK3Rg+P+R0RUin1CC0b0cxEHFhLGSNBYAB50KNZKgB43k5bw3jPJwBwHxnKpVhqtSU9qtBcBW474vDIdv5pQ2bMHbdpME0/OvBi30FKfsSQIUN+bEsBSnwTdeqpEe48AKBd47nKTAbCLFo2KHFWA/d60zR/oJSaZjVuTzHvGfjCOsJH0QxnyKa+wIlfMlQEAYpVopTaGQAupWiledqcXO2QnWvU4S8HgBNo4OWrA58iWPQ9kqrcT3NAqOho15NWrYy8AUCGQOthh9pRBj/vId/qC4I82i+knzQtRh4S6TicFT1vlmma3XKMrBC5f/+eTCa/TrERlFJTLcOe9g/cQh74rNE7LQXR+WlyRUx/P0YzK9bx3wvIcCTfD4Zh1Jd0R/K/iyR/CQFPCZCe00kCpdQ2AHCsUupyqz4sofph1ZN/pjYu0xG9Z616tFgpdSMinkuje4qFYp3b39zTzHInntr538TR+VMatEkuPUqO+id5NEy2tvrZwed71/O0zhWW0T63/kp6QkAICAEhUCQBADiLwwCoHjdWT376ydgYAGTgDDv15HydstfX06P93rKysgFFil4eEwJCQAgIgTgT4Ar6E6fRf3p2Y9ITj+lkS4vXnX1m+s/RaJ8CycRZZ6XsQkAICAEh4JIAl0/2yp6eyJ35T3fyhT47j5+T2UF78TeN9q9Oec4bKaN9lwovjwsBISAEhMBXBBBxF47p/465c2I19Z9pFIxfvkzT0UcOjllpyGhfKqoQEAJCQAh4QwAALsvqdBx3ZGiaetwD98fWACBjgLweuuVoPS9r+96ouqQqBISAEBACmQQA4BW3HVfd9Omx7vzJAOi+4DwWAwARt8qUj/wtBISAEBACQoCdQEVFxffddv70fOcpJ8XeAJjw6AqWZQA6/84uaElQCAgBISAEhEAmAcs1ouuR69g7F8XeAKBZgJqJE1yzRMSLM2UkfwsBISAEhIAQYCeglPql2xmAZHNT7M7+Z24AzPy77ddHuDYAyIUku6AlQSEgBISAEBACmQTIV7FbA4A2v2V2gnH+e8T8SzgMgPfkqF+mlsrfQkAICAEhwE4AABa6NQBaDz9MDIBn1vQxGLv4Tg4DQCPiQHZhS4JCQAgIASEgBNIEUo5lKNCBq06r6w9niAFgGQCT1jzBshGQgrCkZSSfQkAICAEhIATYCVhRjlwZAL3XLhADwDIAaPmjcniXK55kkCHiWHZhS4JCQAgIASEgBNIEAOA5tzMAo2+7RQyADAOgevw41waAUmrbtIzkUwgIASEgBIQAOwErHrirDmvsPXeLAZBhANROneKKJxlkdDqDXdiSoBAQAkJACAiBNAFE/NDtDMD45UvFAMgwAOq3347DANgrLSP5FAJCQAgIASHATgAAPhID4Ksd/FzHFzkMAETcm13YkqAQEAJCQAgIgTQBWQLg7fzJiJAlgLR2yacQEAJCQAgElgAAPO92BkA2AW5sRMgmwMCqu2RMCAgBISAE0gRYjgFec7XsAcjYAyDHANPaJZ9CQAgIASEQWALiCGjj0bvbfQDiCCiwqi4ZEwJCQAgIgUwCLK6ADztUZgCsGQAuV8AA8LNMOcnfQkAICAEhIARYCSilTnS7B0CCAf17FoEpGNC/JBgQq5pLYkJACAgBIZBNQMIB/7vzdjv9T89LOOBsDZPvQkAICAEhEEgCpmm2u50BoOfH3HGbLAM8s0ZXTxjv2gkQIl4cSGWRTAkBISAEhEB0CFRUVHyfwwAYdspJsTcAJjy6giUSoFLq0OhomJRECAgBISAEAksAAF51awTUTd869gZA9/nnuh79kxyUUtMCqyySMSEgBISAEIgOAUS8wq0BgKapxy25L9ZGQN02M1kMAAD4BAAWKKV6ZTNgdOqZlEQICAEhEDgCALCbWwOAnu+cOye2BsD45cs0mCaXAZCZzrOIeLhhGP8bOMWRDAkBISAEhEC4CSDiEA4DoLK7W5MjHI7d9GFLo2POcZmdthd/f6yUulwp1RVubZPcCwEhIASEQKAIAMCLHEZAz4Xnx84AmLhqpU42N3nR6edLU2YFAlV7JDNCQAgIgRATAIB5HAZA1ZjRevLTT8bKCBh28on5Omqvr39C+zcMwxguewVCXPkk60JACAiBUhJQSrVwGACURpxmASaufFgnW1q87ujtpP8MAMxKGXI/LKUeybuFgBAQAkIghAQAgDoRO51Nv/ck29r0xMceicUsQMshB/fLgoOnwzToBMGVpml2h3VWYODAgd9CxMkAcJBS6ndKqV8ZhtFaVla2WQirVUmybBjGfyJiNSJuBQC/BoD5ALAIAO5HxEcB4G8A8AYArLP+XgUAyxHxDqXURdYzMxCx0TCM/y5JIeSlQsBHAqTnpO+IuB0iHmedjrsTAJYCwONWPfknHZtXSv1VKfUIAPwFAG4GgPMB4GCl1ITy8nKju7v7az5mnedVSqmjHHY2eTu/1hgECBqz6Favdv7n5epQPmTQHRyWWQHKp1LqDET8ME85XwGA/UJZuXiqaN5U6JQIIk5XSp1jGfJf5mFYjG59YTWA81IN37ZDhw79Rd6MyA9CICQEaPM7Iu5Km6sB4B+M9YXq2KcA8LBS6iREHFtdXf3twGNJJBL/BwA8DYdp6lELr43sLMCkJx7T1ePGFtOYluKZvlkBROwJ6qwAADQBwFo7lVApdY8ciywrMwwjCQAnAMATALDeDjvGex5XSv1GKZUIfMMmGRQCXxEYAADDEPFcrk3vDurTZwCwRCl1CCIODKxAOMIDp6FUtLfpCSsejKQR0HzA/qXoyDne+SwpYZA60EQiUZmaqXg/rTc2P1fQUkFgK5JHGSO5KaX2t6YfOfSBI40nSaeqqqr+x6NiS7JCoGgCNGNFvlQA4DmbbQtHnegvDRpkP6CU2iOZTP5X0QXz4kHTNBs4IZF3vKj5BuBy+cvJuYi0aFbgqlLPCjQ0NPxHsXtPEPFML+pAENMEANNax6eRRH+NSyl/+wAAziODLogMJU/xIkA+U2hPSwlmx5zUwfcAYG55efmPAiMda7OQk0L0e2/z/r+KzCxA77ULNFZW9lveADfQOfNtbWg5tBSzAi69UH6qlBoamIrjQUaUUrXkFpptac4n4wERbxJDwAOFkCQLEgCAztT/xSFrh2lAdp5hGIMKFtDrGwzDaOOG1370b0JvBIy9c5E26+pydqLcvEqUHm1c8TUGAa2LuSkrbRr0uj6UIn1rP87CgI9eCtUF2jx4iWwaLIUGxe+dANAMAA+5aU8C8CwZAqeX/OQNANDxh0IV3NHvHcfODq0RMPrWm3WyudlRebn5+ZkezQog4mFeTk0NGjTomwDwuctyvYeI34lKc5dMJr+e2kF8ZD8nIcKogx+nDJmjabknKnKScgSHwODBg79Hy4EAQAZnGOtHrjy/BgA7lmzTdiKRUFZUulyZK/pay0EH6ElPrQ6VIUDT/oloj/z7k6dnswJcMSjIT0BwmqPic0L7MQDg6Qg1Ytl69bhhGPXFE5InhcDGBJRSO1u+LLJ1LSrf7zJNEzYutU/faHOCF41Rw0476gmPrgiFETD8rDM1VlR4oUxpJyxepO1Vms9xzgpwGQAA8GyYnQSRXwOrrvl9lM8rPekvXZrxOV58OfjUiEf0NTRFntoY+2cv+qcApvlRyvnQ7r6Lko5ZAcBLXgCpHN6lR996U2CNgImPP6ob99yjv4bMzW/ryTkEeWtL7YCfaXmTClPjzzIrYJWfa9puvO8VhOGFtOmHvPN5UccCnub9iUTipwwIJYmYEbBOqj0fcP120z/ke/ZS3x0KGYYxySvQNLLuOO5YPenJVYEyBHqvvVpX9vTkE4Lr64h4cXadpWkeRDwlhNNZz9MZ2yFDhvw4u0x2viPivUz6tcjO+4J0DxmBAPAmU/ld62UJ8vEKbTgOkkwkL8EmQD4wLC97YdR3jjw/SUeCfZUSV6TAfA0Mdba9V19VciNgwvKlunGP3TUgcggqXxov0aaVfALMmBW4O2Q7wNOzAqOcTMcrpfbKpxcOr9OsCubjGrTriLgLwwbIfDoWpuukNzsFTT6Sn8ARGGANkMKk217l9W066uibhKzAIhRAxKsC9aVbs8VkPfLPV/puCEx4aJluP+a3fmz0+8w0zXa7gqONmEqpE62gLZ6yZ5btPyjf5eXlPy9UVmuZ6S2m988r9L4g/I6IB4TMuPNa92j56+AgyEbyEDwCtF+EZk2Z2givddmX9OmUEAUe8k1aFOEoFZ2NvBZ5XsDaqVN09wXn6YmrVnpqDNAehOYDD9BmVZXnZbK4HVSMwKyjYTNSfqzDNivwmVLqGqVUv7MCAHAak169P3To0O8Ww9inZ2gUczJTWf3SWd/eQ0ajT3KQ14SEAK15p8733yZ1Jme/S/undvNNlEqpaX56JKOjd0377qNHXDafJbwwHT+kTp/2HVT1jvStYbOUdz7HmU6aFbA6ETpF4HcZ3LyPws8emUwmf5KtsOTNj/EMb1FGVnaevPju9VJayPQhpy5R9DQv2Eua4SMwePDgb1DgryjotYdlWE9HIX2TrjV9mbPyeljIvrC7NZMn67YjDtd0NG/U9dfp8cuX5p0hoNkD8tzXc/GFfR0+HT1M1Nf7n28ATRvdaBTPKSRKj8K/Wi4vw3SC4DNEvNYwjNGZewUA4AYm/Xk+M11O5m7SSpXtGKbylUSHfc67LAe4UbZoPLs5zR76rHdhrVs0EzDFN7F75R+gWGGb1dU60dyskx0dfa560TQDI8jUrMnqioqK73spHFqeoZFTCPcKvJCeFUDEEcXKP/s5OrniJW+naSul9szOo1/fa6pQT59YoQ/fvVqfc3Sdvu2cJn3vJc165YJW/fSNbX3/6W+6Rr+dc0x93730DD3rVz6z3kMbOrd3ylnujw4B8oufpRO+6WKjmdTbVjfow+s79NktI/QNHeP0HcMm6iVdk/XK4VP0Q8O30Pd2TdK3dU7QV7WP0Sc3d+v96lr1pMpanSjRrCztCXCyv8ytplBc5QtLJaAQvffZXFPebuHnez7MswIAcF0RIYHzNQp35WPk93WyzBmXN/KVd6PrW45J6t8fUaeXXtai/7WsU3+8orj/9OwDlzbr04+o01uMTm70Dh/qIO0f6fVbXvK+0hMAgGN90K8N+pxA1NvXNOo/tIzQS7sm69dHztDremcW9f+lkdP19R3j9NENnbo76dvesnRZ3lJKJXyRoOW9bL6fggrZu54vZWQna1YgjCcI0srs5nO9YRgVvlSEfl5Cvh0A4F9+6G1Hi6lPOqRWr7mhtegOv5Ch8OT1rfrEg2t1e7NvM2xvlrIO9SNa+ckjAkqpiX6dkBlTUaPPbO7RT/dMK6qzL2QkvNE7Uy8eNlEfUt+ua9G3OrPGT2dBNBMw248GLkzvoGl/APiZR3XEUbLWrMDWAHCXXxUrCLJSSp3jCBTzzZY/h5Ves+huT+gLj2vQ7y7t8KzjzzYMaGZgwemNundYwo2RZvfZ5dz7Z5hFLckxEbC8YnruGGtiaqr+6vaxmjroQp041+8vjtha/765RzeavtSZK5lEYi8ZpdQhcepc+mvUacNfUI+iGYZRbvkVeL2/MkTktw+qqqr+x54G899FBoiXHJsbTH3FyQ36g+XFTe9nd+rFfKd3X3pCg26s83yvwKn8EpIUg0SAIkUCwFIv60xvskrf0jnet04/l/FASwRzmrp0hbfO5rSvJwNIkRBxu4iFMLU7Qsm877wwjFayZgW+9LLSlTJtMkxL0cghIs24ZOoF29+mCfqIPWr063/xb8RfyDhYe3e7Pmz3ao3oTZmtwcXIUshS3ukPAQA4was6U4WmPrlpuH7Vxdp+rs7czbVHuqfobaob2NqFHOw+8N1lcCKRqASAp3JkxsuCBiHtT8mlrT9VhfctNCtgVb4ozgq8WFZWtjkvsf5Ts6KUUSxvdr2kUf9dFzT7NtVfqOPP/v2ei5t1W5Nna53PDRo06Jv905dfw0jA6jc+86LOjKqo1suHb1HSUX9/hsIFrb1ezgbcz+F7xpFOUSUFgPO9EGZA03w6IjHO6dxtLwAs8HvXusdy9e98bFlZGQCc5UV5tplcqf9+R3tgO/+0MfDS7W19xw69YEDHjx01RnJzGAjQPjJPpv4Pqm/TL4+YHtjOP20Y3Nc1WQ9PVrIPGKgOluw4LQDsCAD/9Kgh8ASWw7ySB6azyZd9GGqZkzxanvloSm6tQyZBkMtGeSBPYk7K7uZeMgS9MJ4O3LlKv/9g6db605273U/aJLj/TtUbyYFJjyiWRpUbGQX9WUQcaBjGcDo+iogdQd1PxMUREXdl0o0N+oYA+sSm4YHv+NMGAH0+P2JrPbXKE0d1r/cXfI5LjjnToU1YiHimn+6DuZUpT3rPkuOanIWO1sWozArU+CCWzQBgeR592dA4Of392P1r9EcPhafzTxsJHy7v1LP3qy263P1wus0HWfr9is2UUtukjsA9kmMzNXnOvCMVB2SY35ny+n3kII07HDY54rmkbVSoOv+0IfD3kdP1dtWNXtSZs7yWZb/pk4ciAHi8n0rtRaG9SJMcLRxCO1b7LXAEf7RmBeaGdFbgAq9FopSayq3fc2fVBX7KP93h5/uccyC/EUAjY6/l6Vf6pmn+wAryVbC9opMlUWp7AOB4zjpjIuor2kaHsvNPGwG0UZGcEnFyAQCaORvsl07new+NJre1zshzF9DT9KzTDXNLNpWSj2gJrlMDREGhrFFJWE4QfEQNrZe4rNEbmx4etns4R/7ZhgDNXszahX054C9eytKvtKk9KWLT9J1R2AxJSxsA8A5nRzevZUSoO/+0EUD7FqZW1rG1JcSYlqv90utC7xlAvtoB4CFO4XuU1jo6N59IJH5aqFBx/J0cdyDi4QDwskf8OSvBEV7JKKXL4zjLv+v0ypKe78/uxN1+p/0LO09j3+QU+mOBLgJghd4IUEodxVlnjmvsikTnnzYC/tqzle7hdSX8Ce0v8aoNLCpdROwBgD8x+oDn6DAost4SRNwlCpZ2UYJx+JA1KzBVKXV7gPd7vEzuqx0WzdbtpC9cjVlXWyJQZ/zddv7p59+4p0MPb2c9IniLLeEE9CalVJdLnbnPT5evnBgp3wCwzmX5N7T1M6ob9NoAnfFPd+JuPx8cvoUmHwZcnADgNE45sqVFCkHHFaxp5c8ZC+wEHu1RODaRSCi2gsUwIUQcYq3teXIW3o1ukMHJLRLDMNrc5Cnz2WQC9PIrWkK/7p/u9LM/KThRwmTzj/BlENY1i9Un67itk/Yp172hnAlInQ7bL1Pv3fzdmqjwzJe/2w6c4/lzWkbmknux1z4I/KkSRPyOFRDidAB4zMMR5Vor3vR+1GkVW5HludwEgjgrgIin5M5t8VcR8Vw3DVjms6cdHv5Nf9mdfvb3kw9lXdsMq18AOvv+bqbsXfwdOiMAAB52Ud6NOr+FHeMiNfWfy2jYgfFkAB27LL61K8GTAPBDy0HNPuRkxZoleAkA7MwU0D2vWPsN/oyIv6UNbOT9rgRFie0rgzIrgIjXcgph8ODB3wCAtzkas96uhK8BfbI7Zr++v72kQ/d0sAVEeSMMrrezdc46/rZRR+ZSh0JjBBiGkXRZ1g3cdqlpinznTwbBh7AZYQAAIABJREFUY91TdCXTUgDFqsnWx9B+p4hrtLubjqgppWpN02ygKXz6bu363iy0hYtgxkleiHgxVwNQRDqs68acPv8XXxhcF7/cxsGic5s2NOJFyHCjZ5VSE8JWVShSqNty53g+FEaAFYxsIxnmKEvB32ltfFX31FgYAGQEkGOjYjjleIYc2A0NW52R/IaYgHXk5yAAeD6HQnIptp10LuTECAA3c5RnhymVkV33z2c8kGtjDnbkdpxTpn6kRctjHi1tBt0IIGdZLCeGZjcMi03nTwYAHQ1sSVSw1BmaCfdDz+UdMSdQXl5uWBY/63nfYjsOpdQvuURi7WT+tNi8ZD5335/iM/pPGwR3X9TM0pgBwOtlZWWhm+kDgAczdYDx78AaAUqpFo5y0uj/mRFbxcoAICPg9OYerjqzkqsdlHSEwCYEaJ1PKXVjDremXArsOB1y5mQYxv9uktkiLxiGMZqjMdtqfEXsRv9pI2DqOJ4RDXkaLVKMJXsMAGhGzLEe23wmkEZAyiPdr23mv18uRzZ0xK7zJwPgxRFb6waTZf8MOXD7YcmUX14cXQIp39772tyg2W8l52goMtNQSp3ESZ1rLfO6M5piawBcczqPy1NEPI5Ttn6kZUVNpQ3KXtWDwBkBAHAXR3kfHr5lLA0AMgKOauhk0RdyXe6Hnss7YkQAEQ/kqOAepLGS26kTAKxwm8/aatRv3d8RWwOATgQQA7ccqWMJYzUDgE4AYFlGysMwMM6C6LSG5VLdlby3rKyLbedPBsD9XZNd8cvQk3lhrDOS54ASAICmgI78H+F2gWltavwiozIVVSkP3a0mtp1/ehmAKU7Au2HcB0BVGQB28mhDYFonAzETYIU4Tuep6E9yjEMdYZz/j6lgia3xVEC7EslWGAlY/hmKrthuO9Mcz38EAHMHDhz4LW6eXI0ZHYdLd4Rx/bztHJ4jgbTvhFvOfqWnlNo56kYAAMzKUUcdtxdP9UyLdedPhs/cxi7H3HKwXx9WV9J+1Ut5j00CFBQoQBv+1gLA7GQy+ROb2Xd8m1JqjxwVylGlJJe46+5tj70B8MY97TphsiwDzCWHYWH9DwCXutWpAs+XdCaAjmsWyF/B+jOqojr2nT8ZALcPm1iQlR3WhmHUOW785AEhkE0AAHa0o3Ae30PuRXfwwzMcAJCbaleVcFqMd/9nz3ZsOSbpiqVbWcTo+ZLtCQCA+9xyPrw+nrv/s5c7Xh05gytI0Mzstly+CwHHBJRSv3FbuYt8ntbhb6ZRn+NMu3gAAG4pMr8bOro5B9bGfvSfNgR+d0DtBi5uucrzBQ3TkswEAADNzLmS8xVto2UGwNr/ML263hVLSxazXTSD8qgQ+IpASpmOcVu5HT6/DhHncG/usytPAHjOYX43qaxXntIoBsCKzj4Gl5/UsAkft3zl+X4725v93DRpbZp1LeNlXVuIAWAZAIfVd7jmCQBX2m3z5D4hkJcAIu7iU4O7kjZMURCevJnx4QcAoA2GrirgssuiG/Y3PbK3+/nApWxeAV3JxK1MQ/b8sT5Ulb5XcAQAQoA+d7jZ0+Fx/X5WywgOXb/PLx2Q90SYAMVl97DxI69Vvk/z5xNXd3f31zjK+tpi2QCYNhBeuaudozGTNJwZpR/T5t18es55HQCa3daZYclKGf1nHH+8sWMch76LS2BORY9zWh74Nv8nAJxQXl7+8yBxHTx48PfcNmaIoD9c/tX0d7oTjPPnB8s7NDFxy1Wed8zQlzVgABjpVjaTKmvFAMgwAO7tmsRRX54LUtsqeQkxAauSr3db0QFgFQDsxu25jwstGSRuy0je7+Lc4ecqe00Vy1FAjkYxTmk8xFUv+ksHALZ0W2dmVDeIAZBhAJA7ZLdMrUBa/YlOfhMC9gkg4slFKiXt5l9omma3/beV5k6O9cz2ZlMMAGsDYNoYaGsyORo0ScPZMsA//ahFdDy3yHZhgzx/WdMkBkCGAbCmZ9oGNsWyJdfMfshf3hEfAgMA4FQHCvk2GQ20hyAsiACgxkH5clbS4e0JMQCyDABi4parPO94CeBjP+odxybh3WqbxQDIMAD+2rMVR3353A/5yztiRgARxwLAY/kaZKXUaqXUnl646fUatWEY5fnKZfd6Y50sAaRH/ulPYmKXn9znuKPPx/Ylr+sLpQ8AM9zKbPuaRjEAMgyAVd1T88nUyfV3/JC/vCOmBJRStUqp/WlWgMLxAsB+SqlEmHEMGTLkx24bs4okyAxA1gxAMsHWqTlpAON+71V+1MVU5MzxbuvM1Kp6MQAyDADyieCWKQC87If85R1CIDIEaNaCoeLpd5fGNwxwetSf/qSwwBxMJQ1nRhQibuVHxQSA/2/vPMDkKI7FfxLPD8dnP6f/s55sH3fTVbN7+fbynXLOSCIjBBgQGUzGJogggk2OQmBMskAIRAaBkAwmCCFACAWQTXISICwwAhEN6rd1nuW/Wm2anZrZCaXv07e3szM93b+u7qrpqa4a4LRvRtU0iAGQZgAs5skHsNaL/pd7CIEwESA/B8epgF+6u1NWAaxVgLV3dYgBYM95j4PXC15FA6SkM04NgAY09YY0BRjVAECpdt/UOZJDBpaFaWKWtggBTwgkX2VQjAJHA5DS4KaegKP+ef+VPCmBnfZJVK4n7296PefJYKmoqOAKFLZmyBRZBbCMoLNbBzmaf0jWlVIPeiUDch8hEBoCAPC0U2Uxe2azGADWCsAVp7AkNnE8ITrt04Bc/xnty/d4MG4HAJ845bOwZ5wYAJYBMKOBJXz2ZR7LgdxOCASfAEfu9iP2rhcDwDIADturTpS3wxWlIpXrZ0qpKeUYgQCwpsg65pSFS9qGiAFgGQBD4s7HjFLq8HLIgtxTCASagFLqJKeTGQW++ehpCQdMDDpanAcBQsS/KKWeDep/AFjnVKYKXF825U+DnQJ9FahfTsWfum5vCQbUawCt4tkCSK8ARgR6IpbKC4FyECDv6dSk5ORzzZ0dkV8FeGEBjwOgaZqjyiELHPc0DOO/XMilka5Qadl/MkddSy2D8no4GSt0bSOa+o3hu0Z+FeC6jhHpfVvy31VVVT8ptT/lOiEQWQIc4YBpQrvmdPEDuGomy/v/LTU1Nd8NokCS8kfEpU6VY57ry/rkn+oTjnDA1MaHxA9AH9LYXrLST5OTD7zaBZKSAfkUAmEhQFsB304bTCUNyEkj45FfAZgwIl4Suwz264IoWIZhbJ9MovV4Rls4eKTK8IXyp76hp02Odh7X3BXpFYC/DNtF16PzV2bJFM0PBHHMSJ2FgC8IAMB8jglt9R3RfQ2wimn5HwBu8IVQ2KwEAMzhkKEcZfhG+aewJFcBXs1R15TBUvCz2Yzpvw3bJbJGANfyv1LquFS/yKcQEAI2CSilDnI6mdH1Zx3VGNlVgDOPbCw44RfDGBH3s9l9ZT+d9uEDwBfFtK+Ec3yn/Ak4AFxTQlu2kZG5nSMjawBQWmQOhqZpJso+CKQCQiCoBBAROQZicwPqtx+NXljgt37frZvqWRIAfUH5GYImRwBwHYf8ZCnDl8qf+kcptUeW+tpWaGNrGyIZFfCRARNss8rBm5IAbRe0MSP1FQK+IgAAf84xwGwN1It/0RS5VYDzj+d5+geAJ3wlFEVWBgA2cMhORhm+Vf6ExUqk5TiMNrX5ru4xkVsFoG2QGf1d6vf5RYqpnCYEhEAuAgBwNseAbG1GveGRrsgYARse6daJJhZHJtrLHLh3mVVVVd/mkJuMMnyt/FNjiMLPZtS7JCW2Y11TpFYBHh04QSNfsCivI0Gmut/ZJ3nNxmKx2mQ++akAcCginmDtL71UKXUtIs4lxxor9eypAHCMUmofykZlGMYPnN1drhYCWxMAAJNjMqMyTj20ITIGwC8Paihp0s/Cekt1dbWxda/4/5thGP2ztMUJk0Aof+oZRJzG1XZyiEslxwnz51vDdtWT65qcyEf6te+QHvX9KKmsrPwqIg5FxDNpywIAvMKQhe1dK+DGbwBgenV19Y99D0Iq6GsCHHkBaEKMmahXzA//joBnbmnXpukskVKaAlnia+HIUTlr+9+WtHakT9B2/w6M8iccVjrt9zna3mLG9ctDdwq9EXB1+zC7MpHvfP/G/7ee7k8GgN8DwMccQlKojKRjyp+sVYOpZHTkGLNyWAhkJZDMDHhYIRkr9vdJo2r0pifD6xD43pPdesJwln3/vROcV/nss3a8w4MAsKpYuchzXqCUfwoZpwPkEU0doTYAVg+eohNmLJ9Ct/WbUqo91Q+++KQIXkqpGeTMk0fQbTXSQTnvUaIXpdTwioqKPr4AJJXwNYG6urr/BgCWJxqS29MPD++2wJMPZlv6p/lgfSKR+IqvhSNP5ZJ9PdPBPEXtD6TyJySkhBy2fSt9cGNItwW+OXw3PZVv6Z+Yrcgjkt7+pJQaiIj3AMC/OIWBsaxXlFLHxuPxb3pLRu4WNAKWz8lWk1KpcogI+r4rWkPnD3D3ZWwezCnOpwVNTtLraxmO/yxRTgKr/FMMAODhEtue6v8vPyky3vJBO4ZuJeC0xIAv28jBinznUvzL9gkAPcn/izka5FEZm5RS5wY11njZOjpCN6btTYj4IZc8NtShXja3PTRGwLPzOnQjz57/1IT4XhjGI6XmBQC7vgBlT+zDMbQRcQjXeKFyBsfr9LoQ+QP8rnMkp9c/jZsXyxr73zCMkZSqk7PTPS5rEyLOkhUBjuEfvjIA4FJOeWxvMfW6ezoDbwS8dHenbkvwbPlL4zszLBJEO5VsRAT8wDCMCSFqO2sehNE1DfrVEBgBFOMgxrflr9doRsQ9yyI3iNiP3qunDd6UFR/Uz/W0g6AsMOWmviVAO0q4HVcHd8X0y/cF1wj44z2delAXu/LfSBn0fCsIJVQsuZNkDAC8XGCOfIKcpEso3reXIOLoAm22rSN2qW/Wrw/dObCvAxb2jNP1JvuY+ePgwYP/w1NBoBsi4pEAsIm7k31S3hLaB+4pVLmZrwkk5dKpY9c2E15nq6lX3ha87YErbm3XVHfusRrEwD/FCC05NNKuBgC43koPvA4AHlNKXUzL5cWUEcRzLD8wVjmhlYAXh0wNnBFwe9doXcuT6W8rnkqpcZ7KhmEY1QFf7t8KYJ5J7GNKCuMpXLmZbwnQNtIinuSKla0vz0s0mvr317YF5nXAw9e0ccX5/5IBjcGkE9PqeDz+n74VAKmYbQKIuAMAfJRnjt1KBoo9b2hNnX4mQI6Bl7cP1Say5MbI5LXAdqc4uQAAJgMABdzJrEiYv99RWVn5HSfc5NpwECBfFzdkHxH0OUc36s3L/BsngOp24YlNnIF+0ueMLxCxOxxSIq1IJ6CUotgv6X3N8ncDmvp3XaN8vRLw52Rq40Ma21nam8mQHJNN06xMZ+3a3xTdChEvyaxEhL6/7rsgC671thScjwAi3u6W3O8xqUa/cr///ALIV2H3ibWuTGQWyyvyMZffgkvAioxIrzxckZ+jmjp96Rz4+4ET9JB4nSttJpaevS6z9rQ+6VYHBqjcjxBxUnCHotScgwDlnaBANW7JbX0t6ktPavJF1ECK7kfZDKlObrU36XT7Wtgc/zjkLExlIGILAHzilgx1xGo0BQzaMHy3sq8IvDJ0Z31SosetJf/ecYiIj3qS8jcWi/0IAFa61XEBLPdzimwYpsEpbbFPwDCMQQy5K/Iq1REDY/r2i1r05mU9nvsH0D1vvaBFDxvAF6Y0x1gnpdBqvwfkiqARUEodkUMG8o4DO9fsVNesH+gZVxYjgJb7L2wbolsYQ/vmaPsG2n3nev+Ts5+VpIetg3I0KGjlU3CPQEcqc114InADt95tZo4RUsI3nZvQ7zzmvn/Axse69Y3nJPSQbtcVf2rMHxoBUZEm/ptAHwC4I1O+3fhO2fUWdI/WFG7X7UyCFKDo3NZBXih+GjNfkB+S6wJlGEYNALztRueEpUyKIOh6R8gN/EygLyI+5JU8UwTBo/at10uubdMfPMW3KvD+0p7eMn++T52me3jVnuQ223l+7lypGz8BcqamVz5eyVh7rEaflOjWfxg4kfX1AD3tUzS/6fUtOuaOd3/WcUjB6vh7JaNEymeNiH/xqpOCfB/KJ5CBT75GiEBVVdW3kztjXvBahklR77tTrZ49s1k/fkObXr+4q+jXBH9/uKv3Grp2n6m1Xiv93omN9sJT6tgIiYo01SJA8VUA4B9ej5lWM64PbGzTV3cM148OnKBfKzKgEPkVrB4yRd/XM1af3TpIT6ltYo/kVySLW1wP9wsA3wcA1zw2i2lovK1NN06ZotsOP1R3/OIE3T3rDN1z3q/0gIsu0D1nzdJdJ5+k2489RjdP21PXDh6sgT+yUlbrK0fd6XWARA6M8PRm+cl49lSTQw51osnUO46K6+lTavUh0+r0sfvV9/4/ZFp977FJI+O95+S63sPjL5qm+b0Ii0zkmw4AbckwyR94KHNZ5/QOM96r0Kc1tPQaB0c3derDmjr0fg1teo/6hKagQ3UuBO8pod2LXI+RQXHwAWB5CZXLCreochB13aiRuuO4Y/SQG6/X459brieuW2vr/4S1q/TI++/R3WfP0k2776axzr2tFznaRNm7vI3GFPkpxF8ALH+Zt3LIR+njw6WtU2Ws5/pYLPZTf/We1KYcBBBxqJs7A8oo49zj/RlE/JbrfYSIc72CVtPd3ft0P/qRxbaUfTHGwYRVz+sh116jm/fcw8vVAbJmJXSw61Lq3xsYhtEMABu9GkMBvM/fZIz4V37LUTMA2BUAKAMit9IMRXkUHbO6uvqHrvcNIh7sRSc0Tpmsh90yV098aQ274s9mHIx5/FHdfvRR2vRmVWAlhYt1vbPkBr4lQApO/GeyTua017/atx0nFSsbAQAYBgDve6F/AnaPZZ68KjMMo4k701km6IZJE/XwBbd5ovSzGQJjlz3Z+5oBY+5ub0LEq8o2kuTGviBg+QR47hiYOeZ89H0tAPyvLzpHKuFLAhQLQnad/X/DmZIo9e/f/2uudxa9W1BK/cmtySLW0qIHXX6pZ0/82ZR/+rHRixZqWoVwq71Wubu53nFyA18TqKmp+W7yyYY1H7rLMuvWmHiAIon6urOkcr4gYO0OeD2gcs45fq72JMof9ToAXOYW8Obpe+lxzywr21N/uuLf6u+X1vTuKMBa12Kbv0PhYn0xqqQSZSNAKbMpYBQF73BrjPm43C1WnIy+ZesAuXHgCNC2WqXUbT6Wa05Fn1nWx4h4pGedZjktfc4O2zR7t+t59Z5/K+VuYwfBqEUP6rrhwzM7geU7Iv7Ws46UG/maQDJ19viIOQdSttCxvu4UqZyfCfQhRQgAn7LrJv86G65DxHovO6UvACzjBhxrbtYj7rrDf0/9OQyD8c8/q5t23YVF6WewpPgAPV52qNzLvwSqqqp+AgCPZciIG3JX1jKVUnd7Eqfcv10tNWMiYMUKeCXkY2YLPSzW19d/gwlbccUopQ7kBhtvb9ejHnwgMMo/tXIwYc0LumX//dgnTtrCkUgkvlJcj8hZESBAsdCnA8AG7rHng/LelSRZEZBgj5tIwW8Q8QS3ndTLMX7I986TuP6ZfUbWBrfHZU1Pj6YtdymlGrTPCS+u1m2HH+aGESCZAzMFMOLfLQfBOSHxDfgXAMzxZK9yxOUmys23Am09UA5FzX1PRPyQfIMMw9i+LH2a3HN5NGejyNN/9OJFgVX+KWOFjIDEvvtwGwGvkjNYWTpabuprAlaO9HsBgF4Xccud2+WRk99tiIi+hiyVCxUBRJyY9Kl5NoDjhcYjpb4mY/nHZesUsjoAYD0XQLO+Xo+8757AK/8vjYDVK3Xj1Cnck6fkCiibxPv/xkqpRsvzOQi7BchpmFK6tvmfrNQwrATIvyr5fzGXHnO5nF7FT0n2yt4fSqmDOBs7+KorQ6P8U0bAuGef1hSqmJHTS65ncSq7ZEkFnBJQSsUA4AoAeIdR9rjk+F1E/LVpmpVO2ynXCwEuAoZhDErGD5jnUx8BShB2up9ej23HmYu57bBDQ6f8U0YARS3kzDKYdAicyiX0Uk64CVirdJMB4M4yb4X6CAAWJJ2V9pDUveGWuaC3zkrLTQ62D5f5ldp7AHCjUmp4RUVFH19xVUqN4HqyqB06RI9/YUVoDQAyBLpmnsr19ETlPOArYZDKBIIAxQK3EqaQ0+DLXOM3TzkUie1GRNzZ861JgegRqaTfCVC2SQDYHwBuBoA388g6x/z+BSI+h4jnAcAYX+eCAYCbuGAMnz8v1MqfDADaHkiGDhOzz+Px+P/4ffBI/fxNgByIaCshTTgUL9wK402e+HbllK55BREfUkpdjIi7yP59f/e91K40AoZh1FjJ7i4HgEVWsq5SHG8/BoCVADAfEWcBwGTa0VNarTy+ytr6Rylr7U4U25zfcsD+oVf+qVcBw+bdvE37HTA82uNul9tFgADFmrDiqA9AxNH09J509D0AAI6iHT+0P59WEciDGhGH0JYqiU8RAcGQJuYkQK+0TNOsM01zsBWpc1caJ0qpY5VShyul9qVxRKvmhmF0Wr4vwQ1rDQB7O1BcXypBip8/dunjkTEAyBBo3mval+13yHBlTomUH4SAEBACQkAIuEGA3kE7VF69SrDtyCMipfzJAKBtjhzsrDJMN/pXyhQCQkAICAEhsA0BCqcIAJudKjGMxfSYxx6JnAFARgBjvoBDt+kgOSAEhIAQEAJCwA0CVtAEx0+xLfv9LJLKnwyAYfPmOuZnGWAL3OhjKVMICAEhIASEwDYEkvsiT3X69E/XD5t7U2QNAAoTXNPdxWEEvCNBgbYRUTkgBISAEBACbhBQSj3i1ACIt7XqiS+ujqwBQKsAHSeewGEAaMMwmtzoZylTCAgBISAEhEA6AYr+RxG9HCmv9qN+Hmnl3+sM+MB9jhim9YH4AaRLqPwtBISAEBAC/ASUUlVpiqdkBTb0husibwBMfGmNjrW2lswwrR8u4+9pKVEICAEhIASEQBoBCk+YpnhKUl7k/T/+ueViAKxby5UueFFaF8mfQkAICAEhIAT4CSDiz50aAPVjxojyX7e2l8HAC88vyYhK7wMKRcnf01KiEBACQkAICIE0Akqp2enKp5S/Ww86UAwAywDozRLo0J+CslVJopU0IZU/hYAQEAJCgJ8AACwsRemnX9M96wwxACwDYOyypY5XAIitYRhx/t6WEoWAEPArgcGDB/8HZaozTRMofa1f6yn1ChEBRFyarsxL+XvIddeKAWAZALQbINbc7NgIUEq1h0jMpClCQAjkIEBJmADgXgD4JGP+fQERz0TEHXJcKoeFgDMCALAqQ+hsK68Rd98pBkCaAVA3YoRthpl9QFmmnPWsXC0EhICfCRiG8YNkFNbFmWM/y3fKKf8QIu4kWRr93KMBrFsyC+DrWQTOlgIbtehBMQDSDICGiRNt8cvBf3IAxUmqLASEQBEEYrHYjwDgtRxjP9/88ZZS6tzq6mqjiNvIKUIgPwEA2FiCEG4loGMe/4MYAGkGAFNioOn5e05+FQJCIKAEtmN49brFWj3YlZK5BZSDVLvcBBDxQ6cGwLjlT4kBkGYAJPaevpWBVCLfQ8otG3J/ISAE+Akkn/ynlzgn5JpX/gkAc2KxWC1/baXEUBMAgHecCuOYJx4TAyDNAGBaATgg1IInjRMCESUAAM87nXNzXL8FER9VSu1RWVn51YjilWbbIQAAf84hTLmszW2Oj3r4ITEA0gyAhokTtmFUAuO97PSjnCsEhID/CSBiP4rzUcJ8YHdO2aiUukgpFfM/Falh2QgopVY7FcYR99wlBkCaAVA3kmUXwNSyCYXcWAgIAVcIIOJQp/Ot3euVUs8qpWZIcDFXujTYhQLAU3YFKvN8SQT07zDAFAOgNw5AImHXWs92/oBgS5bUXggIgUwCALBj5vzp4fd3AeBS8RXI7JUIf6f9pU4FsOesWbICYCn/cc8sy6bMbR+TpbsID0ppemgJGIbR6XS+5bg+tSoQj8e/GVrY0rDCBADgaqcC1XbIwWIAWAbAiLvusK3ss/CXXACFRVfOEAKBI2AYxn8BwKdZxjzHvFFKGe8BwBWUFj5wMKXCzgkAwDFOhbF+3FgxACwDYOAlF5UyCDOved15z0oJQkAI+JGAFfY3c8yX+/tniPhrykfgR2ZSJ5cIJJeCxjs1AMA09fgVz4gRsG6tbtl/P46BfL9L3S3FCgEhUGYChmF0eLQTwPZcpJR6UAILlVlAvLx9LBZTjg0AAD30phvEAHhpjY61tdkedJn8EfE8L2VA7iUEhIC3BBDxksxx76Pvc7ylIXcrGwFa8smShcq2Ems/9pjIGwCjFy20zS3boEfEn5VNIOTGQkAIuE7AmnfnZRv/PjhGcQraXIcgN/AHAQB4wqnQxTs79YQXV0faCOg65WQWA4AcM6uqqn7iD+mQWggBIeASgT4AcDQAUChfrrmDpRyl1G0utVmK9RsBpdQZHAI4bN7N0TUAXlqjawYMYBl8Vl98AQAPI+LOkgLUbyNG6iME+AjU1dX9d3IV9kQAeIVjHmYqY7NhGNvztVJK8i0BRBzCITQtB86IrAEw/PZbOZV/ZlnryUiLxWI/9a0QScWEgBBwTMA0zQQl9gGAjzjmZCdlkH+Y4wZJAf4nQIkjOAQOYzE95vFHI2kENE/bM1Npu/FdVgX8P5ykhkLAMQHDMH6glDoOADY5UeJOrqXdCo4bIgUEg4CVW9qx0oqiM+CohfdrQHTMzuZgXY+IZ8qqQDDGl9RSCBRLgJberZTBL9icE1jnIFkBKLbHQnAeJYvgEDazrk6PXbY0UqsAiX33YR14NvuBVgUeAIDJEsQjBANRmhBZAlamwNMAYKPNOcCN+ed9iQcQIVGsqqr6NsdrABLc1giFBh5xx+3lePrPNeDfVEqdK2E9IzRwi2zqDjvs8P8Mw6ih7V1KqeFKqSkAsBe1QpmNAAAaQ0lEQVRtOSVH02RW0KmUqY4SxQDA94ssVk5jIGBlCLwDAD73geJPzS0LGJomRQSJAADMZxFARD3izgXhXwV4cbWuHT48NWD89EmrAguDuCpQXV39Q0Q8ARGXAsA/AOBfALAeAO5SSu0jOyLyzyiVlZXfMQxjAgD8EgBuAICnS9xmRvHqVwHArck5YaZSahx5q+e/u/xaLIF+/fp9nVZdOdKxs8zZGdsQSYaKbYucFxICLGGBLUGqGzlCT1jzQqiNgJ6zZ/lJ6eeqyxsAcBYi7uBzMaU90ZSX4v0CE9prhmEM8nlbPKseKRLTNEcppX4FAMtdfoqkADFrKIqdUmqEbBOz382maVZSzH0AeKeAnOcaz14c/5u8TrTft4G/gp6uAODvXILZcczRoTUARt57t8Z43IvByHWPLyjONy39+vApui8AXG9D7mhVYK/AD7jSG9DX2rp7XREGE5f8ZCvnAwC4GRFHV1RUbFd6c8J/pdVfflvmz9andOz08PeItDArgeS2k6NsTMS5BOjfxxH1kOuuDZ0RMO7Z5dxBf/JzzFieY+gfX60KJNszs4Q2fYqI3VmFOKQHDcPoj4izEPEvJfByW8ZSu1J+FFL8tpuVWua3XqW4zZ+r/M8lCqntrg7PBfX19d8AgLe5JphYc5OmGPkTrXS5Qf+csHaVbtp9N67BVu5yvkDEh8gBrFyrAtXV1Yb1nr8UFisrKir6hmf0ZW+JYRjVAHCNz/LI5+ov8h24QSkVy96a8B8NyDJ/rv6TTKThF9H8LbQciHIJiO3jlCdgbBgCBL20RrcedKDt9nMZUy6X8yYAnO31DgKl1JVO2kUe7PmlObi/khJVSv3OgYFUTlklj3YyBKqC2wP2ah6wZf5csrGjvVbL2aEjYG0JZE1QUTtkiB677MlArwR0HH9crkETpuNergqQ459Tn5PHwzYA4/H4Ny1Hsc+cGEc+ufYzagu1KWz9RO2hZf7kLpUDArbMn2u+Wi/Of2GU0hLaxOoLYL3DpmQ5Yx5ZHDgjgJb92444PNegCfPxtyiuAC1BlyBCBS+h/eZMSqq14M0CcoK1P/+vTFz8JJt/D9NqDUXgtHZe+Nmb31b/k39JQIaJVNNtAla+avZQlLG2Nj3y/nsDYwSMf2GFTuw93dZACuHkTXEFFiHiTpy+AoiITKyud3s8uF0+xT8AgPuYePhZXufV1NR8122ebpUfkmX+bPJBK39+3yrsVrdKudkIkJc1ANDe32wCU/IxChc86LJLfG8EjF6ySNeNGllyOwtwm2f5WrxW4Dy37l9quW8BwDkcqwKMKwCfkALNJsNBOGaa5mAr2FGpfRK062jHwNAg9A3VMWTL/FllhbYIB6U/pJ4eEkDE37qloFpmHKDHP/+sLw2BwXNma7OhIetgYeDxRlpUtb6GYYxExNuTBkGQ3vmSYfgwLes6iBlOPgAbGHhqRDzFw2HBdas+iHhkwPqda0yQk+Bpft7FkRabnyJScrXbl+XQqycuoZZyQkTANM3vAYBr7yRph8CQa6/xjREw+pElunmP3V0dpIg4KZuIxOPx/0lu9fpFMsjNqwGbcHp9BWhLX7Z25TsGAFcztXU95+uJfHXm+I2c4qxwza7KGhNb1+pIhi89YXMw5SrDWuZf4HJURdeYltDnbwZp7HD1s5RTJAHrVQBFX3NNaJt23aWsvgEU3KfzlJM01ta61kbip5SaXQT2yKwKKKXaueRKKbV7EWzLfor16oPC9roqawEq/6lyJyAK2DI/rb4t4kreRq/0yj4opAL+JkAJWryYUJp22VmPuMu7RELjlj+lu2aeoilgkQftW9W/f/+v2elpyuJmsX/Fg/pxMngXAOZQBrpC7QWAZUxte6rQvcr9O3mPA8A6pvZy9ldZy1JK/akcEegC5s3/AcXNoPgQANDDJENbOPx5yj2u5P7uE6D3tfczCV3ByaZ+zGg94NfnuhI7gLb1Dbnxep3Ydx/Xn/jTeL0bi8WUg27qSwlYlFK3BeydMT2tLEbEXXL5CiQn/z3SOBWUjQLntjlg7OqlAGAyxD1wysfP179GCtnVTrAKtxwvg7LMT8b/URSfJcUGAG4sMA6K7eeHU2XKpxDIS4C271A2MCbBK05ATVM3Tt6x9yl9+O3zS84wSPEHBlx8oW7Z72c61tJS3L35lmgpbv2QvHBt/EirAgBwIgAEbVVgAwWFyTSEyDAAAMpP4LhfKHKeDZSenVpdXf1jN31pONj5pIzXiJUbHUOrb0kDbP9kmmz27c0usOtd5rfS8m4V7pociLmW/8MUm8ENmZEyMwhYCUnKl4zENHXt4ME6MW1P3XH8sbrnrFl64IXn60FXXq4HXzNHD7zkIt1zzlm9BgPtMqgfN1bHmjxZ3s+pvJRS+2Zg5PqavipAMdhz1sFnv9HktgQAdk2tCpAXP1MdP43FYr5KSGM50q5lal/JfRyPgR4xMKYnjYzr6VNq9YG71/X+p7/pGP1G55S7ngCwNm2XjOOxEtRl/lwNV0odwdRHG1LjL9e95LgQ2IaAlcCFZfsWkyD7YdLKVYcTtwHowoGg+wpYntcfM8kDbS/zxT8ruRY5ueWSD1eOx0zQO4+r0ecd16QXXtWq/3hvp968rEd/vDz/fzpn3T2deuFVbfrXxzXpncbWaCrL6/oDwB8qKyu/6qQTA7bMTzt/jq6srPxOoTYnk3et5ugPimRY6F7yuxDISsDy3n6fQxBDXMbMrPDcPdhHKTUcAOYHJHtcSrnQqgBXHIS3DMPY3l3MRZVOfjN3eiXf9PQ+Y7dafe/lrfqdx7oLKvtCxkDq942Pdeu7L2vVM3ar83qFwHaExwAu8z+cbZk/l3QZhtHJJE9bMl/F5bqnHBcCWQmYppngCuTCJNQpZeKHz1OzQvPwYNqqwMsh5Fuoj/fyEHXWWyHiz73g3tVm6tmnNuk3FnexKf2U8s/8XL+4S8+e2aw7W81C/Fl+R8SDs8LNOEg7CChvBQBs9IK5w3tsJm9+wzDiGc0o+BUALnB471S/LCl4MzlBCBQiQOk+ASCKCiY1kDI/P1dKHVSIm9e/W8baHC7nIaZJKJMd23dEfM5rxun3A4A2t1dgBnbG9A3nJPR7T/I97Wcq/Fzf//lEt/7trITuaXfdECDflpzJnsK6zJ8uS+l/A8BKprG3W3q58rcQKJkAOV0xCiabEmAaKHbqQ5a9r0NqUsx8RDw+CkabaZpdJQu1gwvpPS4AuJbjgZb6Tz+8kXWZP5eiL3T83ce79YUnNumauKt+Aq+kpxOm1ztJvtMDNOc8Qd72HKl2mVY4NvrkFZmDUSaX+ooAIn4LEeeWQenaUdBunvtXesr2VacUqEwEVgVuKYDAlZ8B4Ca3xsGUMTV67V0dri/1F1L8mb+vvqNT7zgq7ub4ujyAy/yzS1nmzyeUAEABtpxyPj/fPeQ3IVAyAaXUDADg8uZ2KuheXX8fbfUqGVqZL0ytClA0NobJxSvmxdyHnAr/10u81pI0OTQWU7+iz0EEfcaRjfr9pfm9+DMVs5ffqW60MkF15W6/lZWUEgi5UTZnmeTNf0wx3vylyCXDqscWSsNdyr3lGiFQFAGyej0PGFSeieFjyuZWUVHRpygwATgpbKsCiDjLK+yUUIX2sHMrqYY61A/MbvXdU38u4+Ley1t0fS1yKlW/l0UGH2XGnOh2dkOl1EVO5AsRH/VqPMh9IkygX79+XweAs9x2hHIyGBxe+xjF5A5rF9OqgFLquBCsCrztdD95sX3sRr6MlibUy+a2B0b5p4yCp37XrhONoTcCyOeHfZk/n7wZhtFsrYaUZBT53UcpX9vltwASoKBBSqkHHSrbkoTdpXu+az31bxWeM4BdU3SVg74q4GIkxi8ZWqmcN3PKHG3vW32H/973p5R8oU/yC/BquyAn9yLKIgdP15b5vxSqHH8AwM1F1HGbORMRl4ZptTIHHjnsRwLJDGi7BdnzHBE/pLSZnCFK/dhP+epkGMYPaFUAAP5YygRUxmtW5GsXx2+IeB5n+xJNpl61ILjKP2UcrLy9QycaXd8quI2y4+wLqyxa5qekVpPcXuYvJI/WLhO7GSU3SNa/QmTld7cJbGdlfvM2oZAz/wB6qrsUEfu5DSdA5fexQvfekkxK9IkLk60bE/oAt/hasf4/4OJA78+X3hS8Zf+U0s/8fPyGNl1XE9jXAZsR8api0lq7JV/ZyqWcLACwvEiZezUWi9VmK0eOCYFyEOibzMg1mZakihRgNxRCoTLfVEqdHGTvfi861loVONbvqwKURtktHgBwOqccL7i4JXDv/DOVfub3Wy/wPANnofFd6PeyLvMXI6vk26KUorH3dg7520TZN9PTCBdTrpwjBDwjYJomIOKZAPDnHEJcaKBy/k5RxxZQbG6OoB2eQfTHjfy+KvAvek/PjcowjP9i2pvdK8cnzmgInfJPGQPH7d/AOVbdKMs3y/x25JTmKqXUQCtL4FnWa7ox5Ihtpxw5VwiUk0AfwzAGWdtcKF83+17qHAbGJgC4lV5NuLV3t5xQy3FvAPg+OUn5bVVAKXUgNw8r7gWLMho7NKYpxG5KYYbtk6IGjh7sarCgUvvBl8v83LIq5QmBwBCgpWUKn0nbbKx3Xe/lUOB2Bj0FEnmZloMpUQsitsiTvqsi0ccKjENey2X3FVBKXcvdWgB4gkEue4PnBHG7n10jhXwb0J1AQXbmgdS56wHgNHnNxz0qpDwh4AIBWsIlhWI9dZ0GAOcDACW4uRUA7qNgHLSEb6XC/Q157dOyWDJ/9lTaP0upQl2olhRZBIG0VQG73supyZrj84Eiqlr0KYi4A9dKVZiX/jONhGP3q+foSydlsMXmL1pY5EQhIASEQIQJbEe+FZaR5mTydnLtPE7+9PTI8fRPW/7e+n14l/4zDQBKKdzc4PmuAFnm5xR+KUsICAEhUIgAvcoBgF8CwN85lKXDMs4uVF87v3PFtTj/+KbQvvfPVP6p7+cc3ejEkLNz7WvkKR/l+B12ZFrOFQJCQAg4JkD7jumdu58SQ5GTqeOGWQVQUBWHxkivEqM4/28s7oqcAfDmki5NbedgmKMMWebnEnYpRwgIASFQDAHac4yIvwWAL3JMzG5O+vnKfp4zDGpyRWN/jvZR9rzUU3HUPmcexrst0IrWOUeC3hQzUuUcISAEhAAjAUq9m3S4XM2hGJnL+JwiFzI2taLUeOyZ7Vp5W/DD/ZZquKy4tT2fwWbnt3do77ss83NKuJQlBISAECiSgGEY2wPAskwF54fv9A64yGYUe1ofAHjTadvGDo1H9uk/ZTRQ7AOnHAHg1WI7Ts4TAkJACAgBZgJW9DGOyZyzDErXui9zUysQERmUlp49sznyBsAVpzSz9Dc5m3L3s5QnBISAEBACBQhQMCUA2MChFDnKoHfBFEDKrQROlMeCo54vhCDbX+pJvtTP5+ezvQYYW0BM5WchIASEgBDgJkBxyDkUIkMZb1h787/P3cb08gDgF07r2tqM+sNlPZFfASAGbQnn6YIR8fj0PpK/hYAQEAJCwAMCFFbZqUJ0cr1S6lkAmO5VWGcAuM5JfenaQ6fVRV75p1YNDpnmPDIg7TzxQNTlFkJACAgBIZBOwMrmyPIu14Zi/ZjiDCilGtPr4sXfHGms6d13SgFG/fOyk5ocyw71iRd9L/cQAkJACAiBNAIAcLQNxe10sifv+9PK6fQFAP9w2t77r2wVA2D5v1+B3Ht5i1OZoOv/miaS8qcQEAJCQAh4QSCZrXGsU4VYxPVPAsCuiUTiK160Kd89AOBfRdQ3r1Jbe1d09/9nrnisvqMzL6siWX/KGegpX//Lb0JACAgBIWARsGIAbCpyorYz2X9KmR0Nw+j0C2zKKMnRzn8+EZ3kP5kKP/P7u49325GJnOdKWl+/jBKphxAQApEiAAAXcihGq4y3lFLnUmRBv0Gsrq7+odN2xmMgy//W8n/KGIiZkFOxF8s7Fov91G/yIvURAkJACISeQE1NzXfpPWyxk3WO855WSu0Rj8f/06/AOJIAtTShGAAZBgClRM4hE0UfpwBNfpUbqZcQEAJCINQEDMNoAoB3bU7knyLiXKVUexDgIGK9zfZto8AGdcXEAMgwAIiJU67l2BESBJmVOgoBISAEPCFAT2GI+FwRkzkt858Ri8V+5EnFmG5iGEa8iLblVWZdbaYYABkGQGer8xUApVSMqZulGCEgBISAECiRQF+l1O6I+BAAbE5TmBSb/25EnEaOgyWWXdbLqqqqfpLWnryKPtd5TfXyCiD17j/12VCHJbFMZ2wYRv+yCofcXAgIASEgBLYisB05zpGPwFZHA/qFUs6mK51S/jZNkDDAaSsAm5d1a0TnToBVVVXfDqhYSbWFgBAQAkLA7wQoDkEpSj/zmjeXdMlrAMsIWL+4y/HTP/GtqKjYzu/yI/UTAkJACAiBABMAgE8yFbrd78vmtosBYBkAS29ynhGQMkAGWKSk6kJACAgBIRAEAgDwul2Fn3n+vPMTYgBYBsDN57GEAn4lCLIjdRQCQkAICIEAEwCAhZkK3e73s49qFAPAMgDOOqqR4xXA/QEWKam6EBACQkAIBIGAUupiuwo/8/xdxteIAWAZAFPH1nAYABcEQXakjkJACAgBIRBgAoh4cKZCt/udQt9ufEzyARADjjDASqkZARYpqboQEAJCQAgEgQAiDrWr8LOd//A1bZFfBXhwTivH0782TXNwEGRH6igEhIAQEAIBJmDlPfgim1K3c+zEGQ2RNwCOP6CewwD4nOIzBFikpOpCQAgIASEQFAIAsMKOss92bqLR1FFOC0xtJwbZ2Ng89kxQ5EbqKQSEgBAQAgEnAADn21RSWRXd3Ze1RnYV4I6LWbb/aaXUrwIuTlJ9ISAEhIAQCAoBABjLYQDsMak2sgbArhNYvP81Io4OitxIPYWAEBACQiDgBBDxWwDwGYcRQJHwUklxovL5+A3Oo/9Z7D+tr6//RsDFSaovBISAEBACQSJgZTvMurRvxzD42c7RWwXYa3KtY24WYwkAFKRBI3UVAkJACISBACLuaUfR5zv3D9dHZ0vgkmvbuJQ/lbNbGGRJ2iAEhIAQEAIBItCvX7+vA8D7+RR7sb+NGBjTm54Mf2Cg95f26JGDYlwGwCbqgwCJjFRVCAgBISAEwkIAAK4rVskXOu/yk5tD7wtwyS+buZQ/lfObsMiRtEMICAEhIAQCRoAi0BVS7MX+XluDesWt4XUIfHZeh66JA5sBoJQaGDBxkeoKASEgBIRAmAgktwQuL1bJFzpv2ICYfvvRrtCtBGx4pEsP6WZb+icj4ukwyZC0RQgIASEgBAJIAAB2LKTY7fx+8J51+sNlPaExAjYv69YzdmPz+u9dQUDEiQEUFamyEBACQkAIhIxAHwBYZUfJFzr35IPDkyfgtMMa2Zb9LW4rKyoq+oRMhqQ5QkAICAEhEEQCSqndCyl1u79f8sumwK8CXHRiE7fyp8h/uwRRRqTOQkAICAEhEE4C2yVfBay0q+QLnX/BCcE0Aj56ukeff7wryv+5ioqKvuEUIWmVEBACQkAIBJIAALQBgOM0wZlGwXH7N+jNAfIJoHf+Jx3cwP7kT2wNw+gIpHBIpYWAEBACQiDcBJRS12YqcI7v++5Uq99c4v/dAesXd+m9p/I6/KXxmxNu6ZHWCQEhIASEQGAJmKb5PQD4R5rSYnsS7mk39ZM+Thz0xI1turvdZGtvBsONAPD9wAqGVFwICAEhIATCT0AptU+G8mJTijET9BlHNuqNj/knbDDFLTj98AYdM5GtnZn8EHFa+CVHWigEhIAQEAKBJwAAN2UqMc7vtBpw5yUtmpztypVCmGIVLLi4VXe1ufbUnzIorgu8QEgDhIAQEAJCIBoEKEc9ALzIqfSzlTV2aEzPv7DFUydBUvwLr2rVk0bVpBS0m59rJeFPNMaMtFIICAEhEBoCpmnWAcBH2RQ397HhA2L6ylOb9Z8f7HRtReD1hZ2aEhYNH8ga0jen8YCIHxqGURMagZCGCAEhIASEQHQIAMBeALCFW+HnKs80QU/bsVZfc3qzXnl7h6NXBPSkv/K2jt6y9pxUo6nsXPd14fgWpdQe0ZEUaakQEAJCQAiEjgAiHu+CgixKGbclTL3fLrX6zCMb9U3nJvQfrm/TK+Z36D/d26n//nBX73/6m449el2bvvGcRO+5P9u5VtO15ao3ABwTOkGQBgkBISAEhED0CADA+WVUpuVU5LbvrZT6VfQkRFosBISAEBACYSXQBxF/K0ZA/tcISqnfSaKfsA4BaZcQEAJCILoEKF/A1WIE5DQCbkgkEl+JrnhIy4WAEBACQiDMBCh18GliBGxtBCDiJfLkH2axl7YJASEgBIRALwGl1BFuJA4KoGFB3v7HilgIASEgBISAEIgMAUTcGQA2BVBp23bsy9HG95RSUyLT4dJQISAEhIAQEAIpAqZpVgLAshwKkkvR+q4cRHyuurraSHGQTyEgBISAEBACkSNgGMb29A48QkbAjf379/9a5DpaGiwEhIAQEAJCIBsBRJyIiH8JsSHwulJqfLa2yzEhIASEgBAQApEmQIlvrF0Cn4TIEPiMVjji8fg3I9250nghIASEgBAQAoUIGIYRB4AlITACFgGAWai98rsQEAJCQAgIASGQRgAAegDg3gAaAk8AwLC0psifQkAICAEhIASEgF0CSqlGAJjvZWbBEowOynp4r1Kq3W775HwhIASEgBAQAkIgD4Hq6uofI+IJyVS5fypBQbuyHZAcF5VS58q2vjwdJz8JASEgBISAEGAiQMmFupVSswHgr14bA5bSv9IwjE6m9kgxQkAICAEhIASEgF0C9PStlJqRdLibBwAbXDAI3gKAWwDgAMMwqu3WT84XAkJACAgBISAEPCBQXV39Q6XUQFLYiHgeIt5DEQeVUqsB4HUAeBcAPrf+09+0R59+o3PupmvoWiqDyvKgynILISAEPCbwf0NEykn3e+z+AAAAAElFTkSuQmCC;" vertex="1" parent="1">
          <mxGeometry x="616.5" y="200" width="62" height="62" as="geometry" />
        </mxCell>
      </root>
    </mxGraphModel>
  </diagram>
</mxfile>
